999
dxfrw 0.6.3
  0
SECTION
  2
HEADER
  9
$ACADVER
  1
AC1021
  9
$DWGCODEPAGE
  3
ANSI_1252
  9
$INSBASE
 10
0
 20
0
 30
0
  9
$EXTMIN
 10
-81.5052293704
 20
-25.4109412307
 30
0
  9
$EXTMAX
 10
95.01535593014
 20
99.7140587693
 30
0
  9
$LIMMIN
 10
0
 20
0
  9
$LIMMAX
 10
420
 20
297
  9
$ORTHOMODE
 70
    0
  9
$REGENMODE
 70
    1
  9
$FILLMODE
 70
    1
  9
$QTEXTMODE
 70
    0
  9
$MIRRTEXT
 70
    0
  9
$LTSCALE
 40
1
  9
$ATTMODE
 70
    0
  9
$TEXTSIZE
 40
2.5
  9
$TRACEWID
 40
15.68
  9
$TEXTSTYLE
  7
Standard
  9
$CLAYER
  8
_CONST
  9
$CELTYPE
  6
BYLAYER
  9
$CECOLOR
 62
  256
  9
$CELTSCALE
 40
1
  9
$DISPSILH
 70
    0
  9
$DIMSCALE
 40
1
  9
$DIMASZ
 40
2.5
  9
$DIMEXO
 40
0.625
  9
$DIMDLI
 40
3.75
  9
$DIMRND
 40
0
  9
$DIMDLE
 40
0
  9
$DIMEXE
 40
1.25
  9
$DIMTP
 40
0
  9
$DIMTM
 40
0
  9
$DIMTXT
 40
2.5
  9
$DIMCEN
 40
2.5
  9
$DIMTSZ
 40
0
  9
$DIMTOL
 70
    0
  9
$DIMLIM
 70
    0
  9
$DIMTIH
 70
    0
  9
$DIMTOH
 70
    0
  9
$DIMSE1
 70
    0
  9
$DIMSE2
 70
    0
  9
$DIMTAD
 70
    1
  9
$DIMZIN
 70
    8
  9
$DIMBLK
  1

  9
$DIMASO
 70
    1
  9
$DIMSHO
 70
    1
  9
$DIMPOST
  1

  9
$DIMAPOST
  1

  9
$DIMALT
 70
    0
  9
$DIMALTD
 70
    3
  9
$DIMALTF
 40
0.03937
  9
$DIMLFAC
 40
1
  9
$DIMTOFL
 70
    1
  9
$DIMTVP
 40
0
  9
$DIMTIX
 70
    0
  9
$DIMSOXD
 70
    0
  9
$DIMSAH
 70
    0
  9
$DIMBLK1
  1

  9
$DIMBLK2
  1

  9
$DIMSTYLE
  2
ISO-25
  9
$DIMCLRD
 70
    0
  9
$DIMCLRE
 70
    0
  9
$DIMCLRT
 70
    0
  9
$DIMTFAC
 40
1
  9
$DIMGAP
 40
0.625
  9
$DIMJUST
 70
    0
  9
$DIMSD1
 70
    0
  9
$DIMSD2
 70
    0
  9
$DIMTOLJ
 70
    0
  9
$DIMTZIN
 70
    8
  9
$DIMALTZ
 70
    0
  9
$DIMALTTZ
 70
    0
  9
$DIMUPT
 70
    0
  9
$DIMDEC
 70
    2
  9
$DIMTDEC
 70
    2
  9
$DIMALTU
 70
    2
  9
$DIMALTTD
 70
    3
  9
$DIMTXSTY
  7
STANDARD
  9
$DIMAUNIT
 70
    0
  9
$DIMADEC
 70
    0
  9
$DIMALTRND
 40
0
  9
$DIMAZIN
 70
    0
  9
$DIMDSEP
 70
   44
  9
$DIMATFIT
 70
    3
  9
$DIMFRAC
 70
    0
  9
$DIMLDRBLK
  1
STANDARD
  9
$DIMLUNIT
 70
    2
  9
$DIMLWD
 70
   -2
  9
$DIMLWE
 70
   -2
  9
$DIMTMOVE
 70
    0
  9
$DIMFXL
 40
1
  9
$DIMFXLON
 70
    0
  9
$DIMJOGANG
 40
0.7854
  9
$DIMTFILL
 70
    0
  9
$DIMTFILLCLR
 70
    0
  9
$DIMARCSYM
 70
    0
  9
$DIMLTYPE
  6

  9
$DIMLTEX1
  6

  9
$DIMLTEX2
  6

  9
$LUNITS
 70
    2
  9
$LUPREC
 70
    3
  9
$SKETCHINC
 40
1
  9
$FILLETRAD
 40
0
  9
$AUNITS
 70
    0
  9
$AUPREC
 70
    0
  9
$MENU
  1
.
  9
$ELEVATION
 40
0
  9
$PELEVATION
 40
0
  9
$THICKNESS
 40
0
  9
$LIMCHECK
 70
    0
  9
$CHAMFERA
 40
0
  9
$CHAMFERB
 40
0
  9
$CHAMFERC
 40
0
  9
$CHAMFERD
 40
0
  9
$SKPOLY
 70
    0
  9
$USRTIMER
 70
    1
  9
$ANGBASE
 50
0
  9
$ANGDIR
 70
    0
  9
$PDMODE
 70
   34
  9
$PDSIZE
 40
0
  9
$PLINEWID
 40
0
  9
$SPLFRAME
 70
    0
  9
$SPLINETYPE
 70
    2
  9
$SPLINESEGS
 70
    8
  9
$HANDSEED
  5
20000
  9
$SURFTAB1
 70
    6
  9
$SURFTAB2
 70
    6
  9
$SURFTYPE
 70
    6
  9
$SURFU
 70
    6
  9
$SURFV
 70
    6
  9
$UCSBASE
  2

  9
$UCSNAME
  2

  9
$UCSORG
 10
0
 20
0
 30
0
  9
$UCSXDIR
 10
1
 20
0
 30
0
  9
$UCSYDIR
 10
0
 20
1
 30
0
  9
$UCSORTHOREF
  2

  9
$UCSORTHOVIEW
 70
    0
  9
$UCSORGTOP
 10
0
 20
0
 30
0
  9
$UCSORGBOTTOM
 10
0
 20
0
 30
0
  9
$UCSORGLEFT
 10
0
 20
0
 30
0
  9
$UCSORGRIGHT
 10
0
 20
0
 30
0
  9
$UCSORGFRONT
 10
0
 20
0
 30
0
  9
$UCSORGBACK
 10
0
 20
0
 30
0
  9
$PUCSBASE
  2

  9
$PUCSNAME
  2

  9
$PUCSORG
 10
0
 20
0
 30
0
  9
$PUCSXDIR
 10
1
 20
0
 30
0
  9
$PUCSYDIR
 10
0
 20
1
 30
0
  9
$PUCSORTHOREF
  2

  9
$PUCSORTHOVIEW
 70
    0
  9
$PUCSORGTOP
 10
0
 20
0
 30
0
  9
$PUCSORGBOTTOM
 10
0
 20
0
 30
0
  9
$PUCSORGLEFT
 10
0
 20
0
 30
0
  9
$PUCSORGRIGHT
 10
0
 20
0
 30
0
  9
$PUCSORGFRONT
 10
0
 20
0
 30
0
  9
$PUCSORGBACK
 10
0
 20
0
 30
0
  9
$USERI1
 70
    0
  9
$USERI2
 70
    0
  9
$USERI3
 70
    0
  9
$USERI4
 70
    0
  9
$USERI5
 70
    0
  9
$USERR1
 40
0
  9
$USERR2
 40
0
  9
$USERR3
 40
0
  9
$USERR4
 40
0
  9
$USERR5
 40
0
  9
$WORLDVIEW
 70
    1
  9
$SHADEDGE
 70
    3
  9
$SHADEDIF
 70
   70
  9
$TILEMODE
 70
    1
  9
$MAXACTVP
 70
   64
  9
$PINSBASE
 10
0
 20
0
 30
0
  9
$PLIMCHECK
 70
    0
  9
$PEXTMIN
 10
0
 20
0
 30
0
  9
$PEXTMAX
 10
0
 20
0
 30
0
  9
$GRIDMODE
 70
    1
  9
$SNAPSTYLE
 70
    0
  9
$GRIDUNIT
 10
1
 20
1
  9
$PLIMMIN
 10
0
 20
0
  9
$PLIMMAX
 10
0
 20
0
  9
$UNITMODE
 70
    0
  9
$VISRETAIN
 70
    1
  9
$PLINEGEN
 70
    0
  9
$PSLTSCALE
 70
    1
  9
$TREEDEPTH
 70
 3020
  9
$CMLSTYLE
  2
Standard
  9
$CMLJUST
 70
    0
  9
$CMLSCALE
 40
20
  9
$PROXYGRAPHICS
 70
    1
  9
$MEASUREMENT
 70
    1
  9
$CELWEIGHT
370
   -1
  9
$ENDCAPS
280
    0
  9
$JOINSTYLE
280
    0
  9
$LWDISPLAY
290
    0
  9
$INSUNITS
 70
    4
  9
$HYPERLINKBASE
  1

  9
$STYLESHEET
  1

  9
$XEDIT
290
    1
  9
$CEPSNTYPE
380
    0
  9
$PSTYLEMODE
290
    1
  9
$EXTNAMES
290
    1
  9
$PSVPSCALE
 40
0
  9
$OLESTARTUP
290
    0
  9
$SORTENTS
280
  127
  9
$INDEXCTL
280
    0
  9
$HIDETEXT
280
    1
  9
$XCLIPFRAME
290
    0
  9
$HALOGAP
280
    0
  9
$OBSCOLOR
 70
  257
  9
$OBSLTYPE
280
    0
  9
$INTERSECTIONDISPLAY
280
    0
  9
$INTERSECTIONCOLOR
 70
  257
  9
$DIMASSOC
280
    1
  9
$PROJECTNAME
  1

  9
$CAMERADISPLAY
290
    0
  9
$LENSLENGTH
 40
50
  9
$CAMERAHEIGHT
 40
0
  9
$STEPSPERSEC
 40
2
  9
$STEPSIZE
 40
50
  9
$3DDWFPREC
 40
2
  9
$PSOLWIDTH
 40
5
  9
$PSOLHEIGHT
 40
80
  9
$LOFTANG1
 40
1.570796326794897
  9
$LOFTANG2
 40
1.570796326794897
  9
$LOFTMAG1
 40
0
  9
$LOFTMAG2
 40
0
  9
$LOFTPARAM
 70
    7
  9
$LOFTNORMALS
280
    1
  9
$LATITUDE
 40
1
  9
$LONGITUDE
 40
1
  9
$NORTHDIRECTION
 40
0
  9
$TIMEZONE
 70
-8000
  9
$LIGHTGLYPHDISPLAY
280
    1
  9
$TILEMODELIGHTSYNCH
280
    1
  9
$SOLIDHIST
280
    1
  9
$SHOWHIST
280
    1
  9
$DWFFRAME
280
    2
  9
$DGNFRAME
280
    0
  9
$REALWORLDSCALE
290
    1
  9
$INTERFERECOLOR
 62
    1
  9
$CSHADOW
280
    0
  9
$SHADOWPLANELOCATION
 40
0
  0
ENDSEC
  0
SECTION
  2
CLASSES
  0
ENDSEC
  0
SECTION
  2
TABLES
  0
TABLE
  2
VPORT
  5
8
330
0
100
AcDbSymbolTable
 70
    1
  0
VPORT
  5
31
330
2
100
AcDbSymbolTableRecord
100
AcDbViewportTableRecord
  2
*ACTIVE
 70
    0
 10
0
 20
0
 11
1
 21
1
 12
2.075077706534009
 22
60.95540762943653
 13
0
 23
0
 14
10
 24
10
 15
1
 25
1
 16
0
 26
0
 36
1
 17
0
 27
0
 37
0
 40
65.5724555264747
 41
1.468354430379747
 42
50
 43
0
 44
0
 50
0
 51
0
 71
    0
 72
  100
 73
    1
 74
    3
 75
    0
 76
    1
 77
    0
 78
    0
281
    0
 65
    1
110
0
120
0
130
0
111
1
121
0
131
0
112
0
122
1
132
0
 79
    0
146
0
348
10020
 60
    3
 61
    5
292
1
282
    1
141
0
142
0
 63
  250
421
3358443
  0
ENDTAB
  0
TABLE
  2
LTYPE
  5
5
330
0
100
AcDbSymbolTable
 70
    4
  0
LTYPE
  5
14
330
5
100
AcDbSymbolTableRecord
100
AcDbLinetypeTableRecord
  2
ByBlock
 70
    0
  3

 72
   65
 73
    0
 40
0
  0
LTYPE
  5
15
330
5
100
AcDbSymbolTableRecord
100
AcDbLinetypeTableRecord
  2
ByLayer
 70
    0
  3

 72
   65
 73
    0
 40
0
  0
LTYPE
  5
16
330
5
100
AcDbSymbolTableRecord
100
AcDbLinetypeTableRecord
  2
Continuous
 70
    0
  3
Solid line
 72
   65
 73
    0
 40
0
  0
LTYPE
  5
32
330
5
100
AcDbSymbolTableRecord
100
AcDbLinetypeTableRecord
  2
DOT
 70
    0
  3
Dot . . . . . . . . . . . . . . . . . . . . . .
 72
   65
 73
    2
 40
6.35
 49
0
 74
    0
 49
-6.35
 74
    0
  0
LTYPE
  5
33
330
5
100
AcDbSymbolTableRecord
100
AcDbLinetypeTableRecord
  2
DOTTINY
 70
    0
  3
Dot (.15x) .....................................
 72
   65
 73
    2
 40
0.9525
 49
0
 74
    0
 49
-0.9525
 74
    0
  0
LTYPE
  5
34
330
5
100
AcDbSymbolTableRecord
100
AcDbLinetypeTableRecord
  2
DOT2
 70
    0
  3
Dot (.5x) .....................................
 72
   65
 73
    2
 40
3.175
 49
0
 74
    0
 49
-3.175
 74
    0
  0
LTYPE
  5
35
330
5
100
AcDbSymbolTableRecord
100
AcDbLinetypeTableRecord
  2
DOTX2
 70
    0
  3
Dot (2x) .  .  .  .  .  .  .  .  .  .  .  .  .
 72
   65
 73
    2
 40
12.7
 49
0
 74
    0
 49
-12.7
 74
    0
  0
LTYPE
  5
36
330
5
100
AcDbSymbolTableRecord
100
AcDbLinetypeTableRecord
  2
DASHED
 70
    0
  3
Dashed _ _ _ _ _ _ _ _ _ _ _ _ _ _ _ _ _
 72
   65
 73
    2
 40
19.05
 49
12.7
 74
    0
 49
-6.35
 74
    0
  0
LTYPE
  5
37
330
5
100
AcDbSymbolTableRecord
100
AcDbLinetypeTableRecord
  2
DASHEDTINY
 70
    0
  3
Dashed (.15x) _ _ _ _ _ _ _ _ _ _ _ _ _ _ _ _ _
 72
   65
 73
    2
 40
2.8575
 49
1.905
 74
    0
 49
-0.9525
 74
    0
  0
LTYPE
  5
38
330
5
100
AcDbSymbolTableRecord
100
AcDbLinetypeTableRecord
  2
DASHED2
 70
    0
  3
Dashed (.5x) _ _ _ _ _ _ _ _ _ _ _ _ _ _ _ _ _
 72
   65
 73
    2
 40
9.524999999999999
 49
6.35
 74
    0
 49
-3.175
 74
    0
  0
LTYPE
  5
39
330
5
100
AcDbSymbolTableRecord
100
AcDbLinetypeTableRecord
  2
DASHEDX2
 70
    0
  3
Dashed (2x) ____  ____  ____  ____  ____  ___
 72
   65
 73
    2
 40
38.09999999999999
 49
25.4
 74
    0
 49
-12.7
 74
    0
  0
LTYPE
  5
3A
330
5
100
AcDbSymbolTableRecord
100
AcDbLinetypeTableRecord
  2
DASHDOT
 70
    0
  3
Dash dot __ . __ . __ . __ . __ . __ . __ . __
 72
   65
 73
    4
 40
25.4
 49
12.7
 74
    0
 49
-6.35
 74
    0
 49
0
 74
    0
 49
-6.35
 74
    0
  0
LTYPE
  5
3B
330
5
100
AcDbSymbolTableRecord
100
AcDbLinetypeTableRecord
  2
DASHDOTTINY
 70
    0
  3
Dash dot (.15x) _._._._._._._._._._._._._._._.
 72
   65
 73
    4
 40
3.81
 49
1.905
 74
    0
 49
-0.9525
 74
    0
 49
0
 74
    0
 49
-0.9525
 74
    0
  0
LTYPE
  5
3C
330
5
100
AcDbSymbolTableRecord
100
AcDbLinetypeTableRecord
  2
DASHDOT2
 70
    0
  3
Dash dot (.5x) _._._._._._._._._._._._._._._.
 72
   65
 73
    4
 40
12.7
 49
6.35
 74
    0
 49
-3.175
 74
    0
 49
0
 74
    0
 49
-3.175
 74
    0
  0
LTYPE
  5
3D
330
5
100
AcDbSymbolTableRecord
100
AcDbLinetypeTableRecord
  2
DASHDOTX2
 70
    0
  3
Dash dot (2x) ____  .  ____  .  ____  .  ___
 72
   65
 73
    4
 40
50.8
 49
25.4
 74
    0
 49
-12.7
 74
    0
 49
0
 74
    0
 49
-12.7
 74
    0
  0
LTYPE
  5
3E
330
5
100
AcDbSymbolTableRecord
100
AcDbLinetypeTableRecord
  2
DIVIDE
 70
    0
  3
Divide ____ . . ____ . . ____ . . ____ . . ____
 72
   65
 73
    6
 40
31.75
 49
12.7
 74
    0
 49
-6.35
 74
    0
 49
0
 74
    0
 49
-6.35
 74
    0
 49
0
 74
    0
 49
-6.35
 74
    0
  0
LTYPE
  5
3F
330
5
100
AcDbSymbolTableRecord
100
AcDbLinetypeTableRecord
  2
DIVIDETINY
 70
    0
  3
Divide (.15x) __..__..__..__..__..__..__..__.._
 72
   65
 73
    6
 40
4.7625
 49
1.905
 74
    0
 49
-0.9525
 74
    0
 49
0
 74
    0
 49
-0.9525
 74
    0
 49
0
 74
    0
 49
-0.9525
 74
    0
  0
LTYPE
  5
40
330
5
100
AcDbSymbolTableRecord
100
AcDbLinetypeTableRecord
  2
DIVIDE2
 70
    0
  3
Divide (.5x) __..__..__..__..__..__..__..__.._
 72
   65
 73
    6
 40
15.875
 49
6.35
 74
    0
 49
-3.175
 74
    0
 49
0
 74
    0
 49
-3.175
 74
    0
 49
0
 74
    0
 49
-3.175
 74
    0
  0
LTYPE
  5
41
330
5
100
AcDbSymbolTableRecord
100
AcDbLinetypeTableRecord
  2
DIVIDEX2
 70
    0
  3
Divide (2x) ________  .  .  ________  .  .  _
 72
   65
 73
    6
 40
63.5
 49
25.4
 74
    0
 49
-12.7
 74
    0
 49
0
 74
    0
 49
-12.7
 74
    0
 49
0
 74
    0
 49
-12.7
 74
    0
  0
LTYPE
  5
42
330
5
100
AcDbSymbolTableRecord
100
AcDbLinetypeTableRecord
  2
BORDER
 70
    0
  3
Border __ __ . __ __ . __ __ . __ __ . __ __ .
 72
   65
 73
    6
 40
44.45
 49
12.7
 74
    0
 49
-6.35
 74
    0
 49
12.7
 74
    0
 49
-6.35
 74
    0
 49
0
 74
    0
 49
-6.35
 74
    0
  0
LTYPE
  5
43
330
5
100
AcDbSymbolTableRecord
100
AcDbLinetypeTableRecord
  2
BORDERTINY
 70
    0
  3
Border (.15x) __.__.__.__.__.__.__.__.__.__.__.
 72
   65
 73
    6
 40
6.6675
 49
1.905
 74
    0
 49
-0.9525
 74
    0
 49
1.905
 74
    0
 49
-0.9525
 74
    0
 49
0
 74
    0
 49
-0.9525
 74
    0
  0
LTYPE
  5
44
330
5
100
AcDbSymbolTableRecord
100
AcDbLinetypeTableRecord
  2
BORDER2
 70
    0
  3
Border (.5x) __.__.__.__.__.__.__.__.__.__.__.
 72
   65
 73
    6
 40
22.225
 49
6.35
 74
    0
 49
-3.175
 74
    0
 49
6.35
 74
    0
 49
-3.175
 74
    0
 49
0
 74
    0
 49
-3.175
 74
    0
  0
LTYPE
  5
45
330
5
100
AcDbSymbolTableRecord
100
AcDbLinetypeTableRecord
  2
BORDERX2
 70
    0
  3
Border (2x) ____  ____  .  ____  ____  .  ___
 72
   65
 73
    6
 40
88.89999999999999
 49
25.4
 74
    0
 49
-12.7
 74
    0
 49
25.4
 74
    0
 49
-12.7
 74
    0
 49
0
 74
    0
 49
-12.7
 74
    0
  0
LTYPE
  5
46
330
5
100
AcDbSymbolTableRecord
100
AcDbLinetypeTableRecord
  2
CENTER
 70
    0
  3
Center ____ _ ____ _ ____ _ ____ _ ____ _ ____
 72
   65
 73
    4
 40
50.8
 49
31.75
 74
    0
 49
-6.35
 74
    0
 49
6.35
 74
    0
 49
-6.35
 74
    0
  0
LTYPE
  5
47
330
5
100
AcDbSymbolTableRecord
100
AcDbLinetypeTableRecord
  2
CENTERTINY
 70
    0
  3
Center (.15x) ___ _ ___ _ ___ _ ___ _ ___ _ ___
 72
   65
 73
    4
 40
7.619999999999999
 49
4.7625
 74
    0
 49
-0.9525
 74
    0
 49
0.9525
 74
    0
 49
-0.9525
 74
    0
  0
LTYPE
  5
48
330
5
100
AcDbSymbolTableRecord
100
AcDbLinetypeTableRecord
  2
CENTER2
 70
    0
  3
Center (.5x) ___ _ ___ _ ___ _ ___ _ ___ _ ___
 72
   65
 73
    4
 40
28.575
 49
19.05
 74
    0
 49
-3.175
 74
    0
 49
3.175
 74
    0
 49
-3.175
 74
    0
  0
LTYPE
  5
49
330
5
100
AcDbSymbolTableRecord
100
AcDbLinetypeTableRecord
  2
CENTERX2
 70
    0
  3
Center (2x) ________  __  ________  __  _____
 72
   65
 73
    4
 40
101.6
 49
63.5
 74
    0
 49
-12.7
 74
    0
 49
12.7
 74
    0
 49
-12.7
 74
    0
  0
ENDTAB
  0
TABLE
  2
LAYER
  5
2
330
0
100
AcDbSymbolTable
 70
    1
  0
LAYER
  5
10
330
2
100
AcDbSymbolTableRecord
100
AcDbLayerTableRecord
  2
0
 70
    0
 62
    7
  6
CONTINUOUS
370
   -3
390
F
  0
LAYER
  5
4A
330
2
100
AcDbSymbolTableRecord
100
AcDbLayerTableRecord
  2
Defpoints
 70
    0
 62
    7
  6
CONTINUOUS
290
0
370
   -3
390
F
1001
LibreCad
1070
    1
  0
LAYER
  5
4B
330
2
100
AcDbSymbolTableRecord
100
AcDbLayerTableRecord
  2
NUBBINS
 70
    0
 62
    1
  6
CONTINUOUS
370
    0
390
F
  0
LAYER
  5
4C
330
2
100
AcDbSymbolTableRecord
100
AcDbLayerTableRecord
  2
OUTLINE
 70
    0
 62
    7
  6
CONTINUOUS
370
   -3
390
F
  0
LAYER
  5
4D
330
2
100
AcDbSymbolTableRecord
100
AcDbLayerTableRecord
  2
TEXT
 70
    0
 62
    3
  6
CONTINUOUS
370
    0
390
F
  0
LAYER
  5
4E
330
2
100
AcDbSymbolTableRecord
100
AcDbLayerTableRecord
  2
_CONST
 70
    0
 62
   40
  6
CONTINUOUS
370
   -3
390
F
  0
ENDTAB
  0
TABLE
  2
STYLE
  5
3
330
0
100
AcDbSymbolTable
 70
    3
  0
STYLE
  5
4F
330
2
100
AcDbSymbolTableRecord
100
AcDbTextStyleTableRecord
  2
Standard
 70
    0
 40
0
 41
1
 50
0
 71
    0
 42
1
  3
Standard
  4

  0
ENDTAB
  0
TABLE
  2
VIEW
  5
6
330
0
100
AcDbSymbolTable
 70
    0
  0
ENDTAB
  0
TABLE
  2
UCS
  5
7
330
0
100
AcDbSymbolTable
 70
    0
  0
ENDTAB
  0
TABLE
  2
APPID
  5
9
330
0
100
AcDbSymbolTable
 70
    1
  0
APPID
  5
12
330
9
100
AcDbSymbolTableRecord
100
AcDbRegAppTableRecord
  2
ACAD
 70
    0
  0
APPID
  5
50
330
9
100
AcDbSymbolTableRecord
100
AcDbRegAppTableRecord
  2
LibreCad
 70
    0
  0
ENDTAB
  0
TABLE
  2
DIMSTYLE
  5
A
330
0
100
AcDbSymbolTable
 70
    1
100
AcDbDimStyleTable
 71
    1
  0
DIMSTYLE
105
51
330
A
100
AcDbSymbolTableRecord
100
AcDbDimStyleTableRecord
  2
Standard
 70
    0
 40
1
 41
2.5
 42
0.625
 43
0.38
 44
1.25
 45
0
 46
0
 47
0
 48
0
 49
1
140
2.5
141
0.09
142
0
143
25.4
144
1
145
0
146
1
147
0.625
148
0
 71
    0
 72
    0
 73
    0
 74
    1
 75
    0
 76
    0
 77
    0
 78
    1
 79
    0
170
    0
171
    2
172
    0
173
    0
174
    0
175
    0
176
    0
177
    0
178
    0
179
    0
271
    2
272
    4
273
    2
274
    2
275
    0
276
    0
277
    2
278
    0
279
    0
280
    0
281
    0
282
    0
283
    1
284
    0
285
    0
286
    0
288
    0
289
    3
340
standard
341

371
   -2
372
   -2
  0
ENDTAB
  0
TABLE
  2
BLOCK_RECORD
  5
1
330
0
100
AcDbSymbolTable
 70
    2
  0
BLOCK_RECORD
  5
1F
330
1
100
AcDbSymbolTableRecord
100
AcDbBlockTableRecord
  2
*Model_Space
 70
    0
280
    1
281
    0
  0
BLOCK_RECORD
  5
1E
330
1
100
AcDbSymbolTableRecord
100
AcDbBlockTableRecord
  2
*Paper_Space
 70
    0
280
    1
281
    0
  0
BLOCK_RECORD
  5
52
330
1
100
AcDbSymbolTableRecord
100
AcDbBlockTableRecord
  2
*D4
 70
    0
280
    1
281
    0
  0
BLOCK_RECORD
  5
55
330
1
100
AcDbSymbolTableRecord
100
AcDbBlockTableRecord
  2
*D5
 70
    0
280
    1
281
    0
  0
BLOCK_RECORD
  5
58
330
1
100
AcDbSymbolTableRecord
100
AcDbBlockTableRecord
  2
*D1
 70
    0
280
    1
281
    0
  0
BLOCK_RECORD
  5
5B
330
1
100
AcDbSymbolTableRecord
100
AcDbBlockTableRecord
  2
*D2
 70
    0
280
    1
281
    0
  0
BLOCK_RECORD
  5
5E
330
1
100
AcDbSymbolTableRecord
100
AcDbBlockTableRecord
  2
*D3
 70
    0
280
    1
281
    0
  0
ENDTAB
  0
ENDSEC
  0
SECTION
  2
BLOCKS
  0
BLOCK
  5
20
330
1F
100
AcDbEntity
  8
0
100
AcDbBlockBegin
  2
*Model_Space
 70
    0
 10
0
 20
0
 30
0
  3
*Model_Space
  1

  0
ENDBLK
  5
21
330
1F
100
AcDbEntity
  8
0
100
AcDbBlockEnd
  0
BLOCK
  5
1C
330
1B
100
AcDbEntity
  8
0
100
AcDbBlockBegin
  2
*Paper_Space
 70
    0
 10
0
 20
0
 30
0
  3
*Paper_Space
  1

  0
ENDBLK
  5
1D
330
1F
100
AcDbEntity
  8
0
100
AcDbBlockEnd
  0
BLOCK
  5
53
330
52
100
AcDbEntity
  8
0
100
AcDbBlockBegin
  2
*D4
 70
    1
 10
0
 20
0
  3
*D4
  1

  0
LINE
  5
61
100
AcDbEntity
  8
_CONST
  6
ByBlock
 62
    0
370
   -2
100
AcDbLine
 10
-78.33092538485955
 20
92.36356950662669
 11
-39.5873361516
 21
92.36356950662669
  0
SOLID
  5
62
100
AcDbEntity
  8
_CONST
  6
ByBlock
 62
    0
370
   -2
100
AcDbTrace
 10
-78.33092538485955
 20
92.36356950662669
 30
0
 11
-75.83092538485955
 21
92.77985416439952
 31
0
 12
-75.83092538485955
 22
91.94728484885385
 32
0
 13
-75.83092538485955
 23
91.94728484885385
 33
0
  0
SOLID
  5
63
100
AcDbEntity
  8
_CONST
  6
ByBlock
 62
    0
370
   -2
100
AcDbTrace
 10
-39.5873361516
 20
92.36356950662669
 30
0
 11
-42.0873361516
 21
91.94728484885385
 31
0
 12
-42.0873361516
 22
92.77985416439952
 32
0
 13
-42.0873361516
 23
92.77985416439952
 33
0
  0
MTEXT
  5
64
100
AcDbEntity
  8
_CONST
  6
CONTINUOUS
 62
    0
370
   -2
100
AcDbMText
 10
-58.95913076822978
 20
94.23856950662669
 30
0
 40
2.5
 41
11.94444444444491
 71
    5
 72
    1
  1
38.7436
  7
standard
210
0
220
0
230
1
 50
0
 73
    2
 44
1
  0
LINE
  5
65
100
AcDbEntity
  8
_CONST
  6
ByBlock
 62
    0
370
   -2
100
AcDbLine
 10
-78.33092538485955
 20
72.21432934763804
 11
-78.33092538485955
 21
93.61356950662669
  0
LINE
  5
66
100
AcDbEntity
  8
_CONST
  6
ByBlock
 62
    0
370
   -2
100
AcDbLine
 10
-39.5873361516
 20
95.9640587693
 11
-39.5873361516
 21
91.11356950662669
  0
ENDBLK
  5
54
330
52
100
AcDbEntity
  8
0
100
AcDbBlockEnd
  0
BLOCK
  5
56
330
55
100
AcDbEntity
  8
0
100
AcDbBlockBegin
  2
*D5
 70
    1
 10
0
 20
0
  3
*D5
  1

  0
LINE
  5
67
100
AcDbEntity
  8
_CONST
  6
ByBlock
 62
    0
370
   -2
100
AcDbLine
 10
-34.5873361516
 20
96.5890587693
 11
-47.7163182777
 21
96.5890587693
  0
SOLID
  5
68
100
AcDbEntity
  8
_CONST
  6
ByBlock
 62
    0
370
   -2
100
AcDbTrace
 10
-39.5873361516
 20
96.5890587693
 30
0
 11
-37.0873361516
 21
97.00534342707283
 31
0
 12
-37.0873361516
 22
96.17277411152716
 32
0
 13
-37.0873361516
 23
96.17277411152716
 33
0
  0
SOLID
  5
69
100
AcDbEntity
  8
_CONST
  6
ByBlock
 62
    0
370
   -2
100
AcDbTrace
 10
-42.7163182777
 20
96.5890587693
 30
0
 11
-45.2163182777
 21
96.17277411152716
 31
0
 12
-45.2163182777
 22
97.00534342707283
 32
0
 13
-45.2163182777
 23
97.00534342707283
 33
0
  0
MTEXT
  5
6A
100
AcDbEntity
  8
_CONST
  6
CONTINUOUS
 62
    0
370
   -2
100
AcDbMText
 10
-34.37900281826658
 20
98.4640587693
 30
0
 40
2.5
 41
9.166666666666824
 71
    5
 72
    1
  1
3.1290
  7
standard
210
0
220
0
230
1
 50
360
 73
    2
 44
1
  0
LINE
  5
6B
100
AcDbEntity
  8
_CONST
  6
ByBlock
 62
    0
370
   -2
100
AcDbLine
 10
-39.5873361516
 20
97.2140587693
 11
-39.5873361516
 21
97.8390587693
  0
LINE
  5
6C
100
AcDbEntity
  8
_CONST
  6
ByBlock
 62
    0
370
   -2
100
AcDbLine
 10
-42.7163182777
 20
97.2140587693
 11
-42.7163182777
 21
97.8390587693
  0
ENDBLK
  5
57
330
55
100
AcDbEntity
  8
0
100
AcDbBlockEnd
  0
BLOCK
  5
59
330
58
100
AcDbEntity
  8
0
100
AcDbBlockBegin
  2
*D1
 70
    1
 10
0
 20
0
  3
*D1
  1

  0
LINE
  5
6D
100
AcDbEntity
  8
_CONST
  6
ByBlock
 62
    0
370
   -2
100
AcDbLine
 10
-78.3802293704
 20
66.54461224229736
 11
-78.3802293704
 21
81.58905876941324
  0
SOLID
  5
6E
100
AcDbEntity
  8
_CONST
  6
ByBlock
 62
    0
370
   -2
100
AcDbTrace
 10
-78.3802293704
 20
71.54461224229736
 30
0
 11
-77.96394471262717
 21
69.04461224229736
 31
0
 12
-78.79651402817284
 22
69.04461224229736
 32
0
 13
-78.79651402817284
 23
69.04461224229736
 33
0
  0
SOLID
  5
6F
100
AcDbEntity
  8
_CONST
  6
ByBlock
 62
    0
370
   -2
100
AcDbTrace
 10
-78.3802293704
 20
76.58905876941324
 30
0
 11
-78.79651402817284
 21
79.08905876941324
 31
0
 12
-77.96394471262717
 22
79.08905876941324
 32
0
 13
-77.96394471262717
 23
79.08905876941324
 33
0
  0
MTEXT
  5
70
100
AcDbEntity
  8
_CONST
  6
CONTINUOUS
 62
    0
370
   -2
100
AcDbMText
 10
-80.2552293704
 20
82.49183654719108
 30
0
 40
2.5
 41
10.55555555555571
 71
    5
 72
    1
  1
5.0444
  7
standard
210
0
220
0
230
1
 50
90
 73
    2
 44
1
  0
LINE
  5
71
100
AcDbEntity
  8
_CONST
  6
ByBlock
 62
    0
370
   -2
100
AcDbLine
 10
-79.0052293704
 20
71.54461224229736
 11
-79.6302293704
 21
71.54461224229736
  0
LINE
  5
72
100
AcDbEntity
  8
_CONST
  6
ByBlock
 62
    0
370
   -2
100
AcDbLine
 10
-79.0052293704
 20
76.58905876941324
 11
-79.6302293704
 21
76.58905876941324
  0
ENDBLK
  5
5A
330
58
100
AcDbEntity
  8
0
100
AcDbBlockEnd
  0
BLOCK
  5
5C
330
5B
100
AcDbEntity
  8
0
100
AcDbBlockBegin
  2
*D2
 70
    1
 10
0
 20
0
  3
*D2
  1

  0
LINE
  5
73
100
AcDbEntity
  8
_CONST
  6
ByBlock
 62
    0
370
   -2
100
AcDbLine
 10
-78.3802293704
 20
86.0766379831387
 11
-58.11651318194252
 21
86.0766379831387
  0
SOLID
  5
74
100
AcDbEntity
  8
_CONST
  6
ByBlock
 62
    0
370
   -2
100
AcDbTrace
 10
-78.3802293704
 20
86.0766379831387
 30
0
 11
-75.8802293704
 21
86.49292264091153
 31
0
 12
-75.8802293704
 22
85.66035332536586
 32
0
 13
-75.8802293704
 23
85.66035332536586
 33
0
  0
SOLID
  5
75
100
AcDbEntity
  8
_CONST
  6
ByBlock
 62
    0
370
   -2
100
AcDbTrace
 10
-58.11651318194252
 20
86.0766379831387
 30
0
 11
-60.61651318194252
 21
85.66035332536586
 31
0
 12
-60.61651318194252
 22
86.49292264091153
 32
0
 13
-60.61651318194252
 23
86.49292264091153
 33
0
  0
MTEXT
  5
76
100
AcDbEntity
  8
_CONST
  6
CONTINUOUS
 62
    0
370
   -2
100
AcDbMText
 10
-68.24837127617126
 20
87.9516379831387
 30
0
 40
2.5
 41
11.66666666666698
 71
    5
 72
    1
  1
20.2637
  7
standard
210
0
220
0
230
1
 50
0
 73
    2
 44
1
  0
LINE
  5
77
100
AcDbEntity
  8
_CONST
  6
ByBlock
 62
    0
370
   -2
100
AcDbLine
 10
-78.3802293704
 20
72.11405876933
 11
-78.3802293704
 21
87.3266379831387
  0
LINE
  5
78
100
AcDbEntity
  8
_CONST
  6
ByBlock
 62
    0
370
   -2
100
AcDbLine
 10
-58.11651318194252
 20
77.15633857970919
 11
-58.11651318194252
 21
87.3266379831387
  0
ENDBLK
  5
5D
330
5B
100
AcDbEntity
  8
0
100
AcDbBlockEnd
  0
BLOCK
  5
5F
330
5E
100
AcDbEntity
  8
0
100
AcDbBlockBegin
  2
*D3
 70
    1
 10
0
 20
0
  3
*D3
  1

  0
LINE
  5
79
100
AcDbEntity
  8
_CONST
  6
ByBlock
 62
    0
370
   -2
100
AcDbLine
 10
-29.85563959340959
 20
71.55437698553864
 11
-29.85563959340958
 21
96.5890587693
  0
SOLID
  5
7A
100
AcDbEntity
  8
_CONST
  6
ByBlock
 62
    0
370
   -2
100
AcDbTrace
 10
-29.85563959340959
 20
71.55437698553864
 30
0
 11
-30.27192425118243
 21
74.05437698553864
 31
0
 12
-29.43935493563675
 22
74.05437698553864
 32
0
 13
-29.43935493563675
 23
74.05437698553864
 33
0
  0
SOLID
  5
7B
100
AcDbEntity
  8
_CONST
  6
ByBlock
 62
    0
370
   -2
100
AcDbTrace
 10
-29.85563959340958
 20
96.5890587693
 30
0
 11
-29.43935493563674
 21
94.0890587693
 31
0
 12
-30.27192425118243
 22
94.0890587693
 32
0
 13
-30.27192425118243
 23
94.0890587693
 33
0
  0
MTEXT
  5
7C
100
AcDbEntity
  8
_CONST
  6
CONTINUOUS
 62
    0
370
   -2
100
AcDbMText
 10
-31.73063959340958
 20
84.07171787741932
 30
0
 40
2.5
 41
11.94444444444476
 71
    5
 72
    1
  1
25.0347
  7
standard
210
0
220
0
230
1
 50
90
 73
    2
 44
1
  0
LINE
  5
7D
100
AcDbEntity
  8
_CONST
  6
ByBlock
 62
    0
370
   -2
100
AcDbLine
 10
-41.83021045564933
 20
71.55437698553864
 11
-28.60563959340959
 21
71.55437698553864
  0
LINE
  5
7E
100
AcDbEntity
  8
_CONST
  6
ByBlock
 62
    0
370
   -2
100
AcDbLine
 10
-41.02843265854725
 20
96.5890587693
 11
-28.60563959340958
 21
96.5890587693
  0
ENDBLK
  5
60
330
5E
100
AcDbEntity
  8
0
100
AcDbBlockEnd
  0
ENDSEC
  0
SECTION
  2
ENTITIES
  0
LINE
  5
7F
100
AcDbEntity
  8
OUTLINE
  6
ByLayer
 62
  256
370
   -1
100
AcDbLine
 10
-55.966015808
 20
6.58905876933
 11
-23.3802293704
 21
6.58905876933
  0
LINE
  5
80
100
AcDbEntity
  8
OUTLINE
  6
ByLayer
 62
  256
370
   -1
100
AcDbLine
 10
-23.3802293704
 20
-3.41094123067
 11
-55.966015808
 21
-3.41094123067
  0
CIRCLE
  5
81
100
AcDbEntity
  8
OUTLINE
  6
ByLayer
 62
  256
370
   -1
100
AcDbCircle
 10
-23.3802293704
 20
1.58905876933
 40
2.5
  0
ARC
  5
82
100
AcDbEntity
  8
OUTLINE
  6
ByLayer
 62
  256
370
   -1
100
AcDbCircle
 10
-55.966015808
 20
-4.41094123067
 40
1
100
AcDbArc
 50
90
 51
225
  0
ARC
  5
83
100
AcDbEntity
  8
OUTLINE
  6
ByLayer
 62
  256
370
   -1
100
AcDbCircle
 10
-55.966015808
 20
7.58905876933
 40
1
100
AcDbArc
 50
135
 51
270
  0
LINE
  5
84
100
AcDbEntity
  8
OUTLINE
  6
ByLayer
 62
  256
370
   -1
100
AcDbLine
 10
-56.6731225892
 20
-5.11804801187
 11
-39.233782761
 21
-22.5573878401
  0
ARC
  5
85
100
AcDbEntity
  8
OUTLINE
  6
ByLayer
 62
  256
370
   -1
100
AcDbCircle
 10
-39.5873361516
 20
-22.9109412307
 40
0.5
100
AcDbArc
 50
270
 51
45
  0
LINE
  5
86
100
AcDbEntity
  8
OUTLINE
  6
ByLayer
 62
  256
370
   -1
100
AcDbLine
 10
-39.233782761
 20
25.7355053787
 11
-56.6731225892
 21
8.29616555053
  0
ARC
  5
87
100
AcDbEntity
  8
OUTLINE
  6
ByLayer
 62
  256
370
   -1
100
AcDbCircle
 10
-39.5873361516
 20
26.0890587693
 40
0.5
100
AcDbArc
 50
315
 51
90
  0
LINE
  5
88
100
AcDbEntity
  8
OUTLINE
  6
ByLayer
 62
  256
370
   -1
100
AcDbLine
 10
-39.5873361516
 20
-23.4109412307
 11
-42.7163182777
 21
-23.4109412307
  0
ARC
  5
89
100
AcDbEntity
  8
OUTLINE
  6
ByLayer
 62
  256
370
   -1
100
AcDbCircle
 10
-42.7163182777
 20
-20.9109412307
 40
2.5
100
AcDbArc
 50
240.255118703
 51
270
  0
LINE
  5
8A
100
AcDbEntity
  8
OUTLINE
  6
ByLayer
 62
  256
370
   -1
100
AcDbLine
 10
-39.5873361516
 20
26.5890587693
 11
-42.7163182777
 21
26.5890587693
  0
ARC
  5
8B
100
AcDbEntity
  8
OUTLINE
  6
ByLayer
 62
  256
370
   -1
100
AcDbCircle
 10
-42.7163182777
 20
24.0890587693
 40
2.5
100
AcDbArc
 50
90
 51
119.744881297
  0
LINE
  5
8C
100
AcDbEntity
  8
OUTLINE
  6
ByLayer
 62
  256
370
   -1
100
AcDbLine
 10
-43.9566656236
 20
-23.081549086
 11
-77.1205767164
 21
-4.13074274732
  0
ARC
  5
8D
100
AcDbEntity
  8
OUTLINE
  6
ByLayer
 62
  256
370
   -1
100
AcDbCircle
 10
-75.8802293704
 20
-1.96013489197
 40
2.5
100
AcDbArc
 50
180
 51
240.255118703
  0
LINE
  5
8E
100
AcDbEntity
  8
OUTLINE
  6
ByLayer
 62
  256
370
   -1
100
AcDbLine
 10
-43.9566656236
 20
26.2596666246
 11
-77.1205767164
 21
7.30886028598
  0
ARC
  5
8F
100
AcDbEntity
  8
OUTLINE
  6
ByLayer
 62
  256
370
   -1
100
AcDbCircle
 10
-75.8802293704
 20
5.13825243063
 40
2.5
100
AcDbArc
 50
119.744881297
 51
180
  0
LINE
  5
90
100
AcDbEntity
  8
OUTLINE
  6
ByLayer
 62
  256
370
   -1
100
AcDbLine
 10
-68.3802293704
 20
2.98905876933
 11
-68.3802293704
 21
0.189058769332
  0
LINE
  5
91
100
AcDbEntity
  8
OUTLINE
  6
ByLayer
 62
  256
370
   -1
100
AcDbLine
 10
-68.3802293704
 20
-0.0109412306684
 11
-46.8802293704
 21
-0.0109412306684
  0
LINE
  5
92
100
AcDbEntity
  8
OUTLINE
  6
ByLayer
 62
  256
370
   -1
100
AcDbLine
 10
-68.3802293704
 20
3.18905876933
 11
-46.8802293704
 21
3.18905876933
  0
LINE
  5
93
100
AcDbEntity
  8
OUTLINE
  6
ByLayer
 62
  256
370
   -1
100
AcDbLine
 10
-46.8802293704
 20
-0.0109412306684
 11
-46.8802293704
 21
3.18905876933
  0
LINE
  5
94
100
AcDbEntity
  8
OUTLINE
  6
ByLayer
 62
  256
370
   -1
100
AcDbLine
 10
-68.3802293704
 20
-0.0109412306684
 11
-68.3802293704
 21
3.18905876933
  0
ARC
  5
95
100
AcDbEntity
  8
OUTLINE
  6
ByLayer
 62
  256
370
   -1
100
AcDbCircle
 10
-33.7775372887
 20
-22.9007389178
 40
0.5
100
AcDbArc
 50
135
 51
270
  0
ARC
  5
96
100
AcDbEntity
  8
OUTLINE
  6
ByLayer
 62
  256
370
   -1
100
AcDbCircle
 10
-33.7775372887
 20
26.0992610822
 40
0.5
100
AcDbArc
 50
90
 51
225
  0
ARC
  5
97
100
AcDbEntity
  8
OUTLINE
  6
ByLayer
 62
  256
370
   -1
100
AcDbCircle
 10
-30.6485551626
 20
-20.9007389178
 40
2.5
100
AcDbArc
 50
270
 51
299.744881297
  0
ARC
  5
98
100
AcDbEntity
  8
OUTLINE
  6
ByLayer
 62
  256
370
   -1
100
AcDbCircle
 10
-30.6485551626
 20
24.0992610822
 40
2.5
100
AcDbArc
 50
60.25511870310001
 51
90
  0
LINE
  5
99
100
AcDbEntity
  8
OUTLINE
  6
ByLayer
 62
  256
370
   -1
100
AcDbLine
 10
-29.4082078167
 20
-23.0713467733
 11
3.75570327614
 21
-4.12054043432
  0
ARC
  5
9A
100
AcDbEntity
  8
OUTLINE
  6
ByLayer
 62
  256
370
   -1
100
AcDbCircle
 10
2.51535593014
 20
-1.94993257932
 40
2.5
100
AcDbArc
 50
299.744881297
 51
360
  0
LINE
  5
9B
100
AcDbEntity
  8
OUTLINE
  6
ByLayer
 62
  256
370
   -1
100
AcDbLine
 10
-29.4082078167
 20
26.2698689377
 11
3.75570327614
 21
7.31906259868
  0
ARC
  5
9C
100
AcDbEntity
  8
OUTLINE
  6
ByLayer
 62
  256
370
   -1
100
AcDbCircle
 10
2.51535593014
 20
5.14845474368
 40
2.5
100
AcDbArc
 50
360
 51
60.25511870310001
  0
LINE
  5
9D
100
AcDbEntity
  8
OUTLINE
  6
ByLayer
 62
  256
370
   -1
100
AcDbLine
 10
-33.7775372887
 20
-23.4007389178
 11
-30.6485551626
 21
-23.4007389178
  0
LINE
  5
9E
100
AcDbEntity
  8
OUTLINE
  6
ByLayer
 62
  256
370
   -1
100
AcDbLine
 10
-33.7775372887
 20
26.5992610822
 11
-30.6485551626
 21
26.5992610822
  0
LINE
  5
9F
100
AcDbEntity
  8
OUTLINE
  6
ByLayer
 62
  256
370
   -1
100
AcDbLine
 10
-17.2168771169
 20
-5.63297196482
 11
-34.1310906793
 21
-22.5471855273
  0
ARC
  5
A0
100
AcDbEntity
  8
OUTLINE
  6
ByLayer
 62
  256
370
   -1
100
AcDbCircle
 10
-18.9846440699
 20
-3.86520501182
 40
2.5
100
AcDbArc
 50
315
 51
360
  0
LINE
  5
A1
100
AcDbEntity
  8
OUTLINE
  6
ByLayer
 62
  256
370
   -1
100
AcDbLine
 10
-34.1310906793
 20
25.7457076917
 11
-17.2168771169
 21
8.831494129179999
  0
ARC
  5
A2
100
AcDbEntity
  8
OUTLINE
  6
ByLayer
 62
  256
370
   -1
100
AcDbCircle
 10
-18.9846440699
 20
7.06372717618
 40
2.5
100
AcDbArc
 50
360
 51
45
  0
LINE
  5
A3
100
AcDbEntity
  8
OUTLINE
  6
ByLayer
 62
  256
370
   -1
100
AcDbLine
 10
5.01535593014
 20
-0.000738917819439
 11
-4.98464406986
 21
-0.0007389178194380001
  0
LINE
  5
A4
100
AcDbEntity
  8
OUTLINE
  6
ByLayer
 62
  256
370
   -1
100
AcDbLine
 10
-4.98464406986
 20
-0.0007389178194380001
 11
-4.98464406986
 21
3.19926108218
  0
LINE
  5
A5
100
AcDbEntity
  8
OUTLINE
  6
ByLayer
 62
  256
370
   -1
100
AcDbLine
 10
-4.98464406986
 20
3.19926108218
 11
5.01535593014
 21
3.19926108218
  0
LINE
  5
A6
100
AcDbEntity
  8
OUTLINE
  6
ByLayer
 62
  256
370
   -1
100
AcDbLine
 10
5.01535593014
 20
3.19926108218
 11
5.01535593014
 21
5.14845387941
  0
LINE
  5
A7
100
AcDbEntity
  8
OUTLINE
  6
ByLayer
 62
  256
370
   -1
100
AcDbLine
 10
5.01535593014
 20
-1.94993257932
 11
5.01535593014
 21
-0.000738917819439
  0
LINE
  5
A8
100
AcDbEntity
  8
_CONST
  6
ByLayer
 62
  256
370
   -1
100
AcDbLine
 10
5.01535593014
 20
1.58905876933
 11
5.01535593014
 21
-0.000738917819439
  0
LINE
  5
A9
100
AcDbEntity
  8
_CONST
  6
ByLayer
 62
  256
370
   -1
100
AcDbLine
 10
5.01535593014
 20
-0.000738917819439
 11
5.01535593014
 21
3.19926108218
  0
LINE
  5
AA
100
AcDbEntity
  8
_CONST
  6
ByLayer
 62
  256
370
   -1
100
AcDbLine
 10
-78.3802293704
 20
1.58905876933
 11
5.01535593014
 21
1.58905876933
  0
LINE
  5
AB
100
AcDbEntity
  8
_CONST
  6
ByLayer
 62
  256
370
   -1
100
AcDbLine
 10
-79.1824367201
 20
28.5890587693
 11
5.81756327987
 21
-25.4109412307
  0
LINE
  5
AC
100
AcDbEntity
  8
_CONST
  6
ByLayer
 62
  256
370
   -1
100
AcDbLine
 10
5.81756327987
 20
28.5890587693
 11
-79.1824367201
 21
-25.4109412307
  0
ARC
  5
AD
100
AcDbEntity
  8
OUTLINE
  6
ByLayer
 62
  256
370
   -1
100
AcDbCircle
 10
-76.1824367201
 20
25.5890587693
 40
3
100
AcDbArc
 50
90
 51
180
  0
LINE
  5
AE
100
AcDbEntity
  8
OUTLINE
  6
ByLayer
 62
  256
370
   -1
100
AcDbLine
 10
2.81756327987
 20
28.5890587693
 11
-76.1824367201
 21
28.5890587693
  0
ARC
  5
AF
100
AcDbEntity
  8
OUTLINE
  6
ByLayer
 62
  256
370
   -1
100
AcDbCircle
 10
2.81756327987
 20
25.5890587693
 40
3
100
AcDbArc
 50
0
 51
90
  0
LINE
  5
B0
100
AcDbEntity
  8
OUTLINE
  6
ByLayer
 62
  256
370
   -1
100
AcDbLine
 10
5.81756327987
 20
-22.4109412307
 11
5.81756327987
 21
25.5890587693
  0
ARC
  5
B1
100
AcDbEntity
  8
OUTLINE
  6
ByLayer
 62
  256
370
   -1
100
AcDbCircle
 10
2.81756327987
 20
-22.4109412307
 40
3
100
AcDbArc
 50
270
 51
0
  0
LINE
  5
B2
100
AcDbEntity
  8
OUTLINE
  6
ByLayer
 62
  256
370
   -1
100
AcDbLine
 10
-76.1824367201
 20
-25.4109412307
 11
2.81756327987
 21
-25.4109412307
  0
LINE
  5
B3
100
AcDbEntity
  8
OUTLINE
  6
ByLayer
 62
  256
370
   -1
100
AcDbLine
 10
-79.1824367201
 20
25.5890587693
 11
-79.1824367201
 21
-22.4109412307
  0
ARC
  5
B4
100
AcDbEntity
  8
OUTLINE
  6
ByLayer
 62
  256
370
   -1
100
AcDbCircle
 10
-76.1824367201
 20
-22.4109412307
 40
3
100
AcDbArc
 50
180
 51
270
  0
MTEXT
  5
B5
100
AcDbEntity
  8
TEXT
  6
ByLayer
 62
  256
370
   -1
100
AcDbMText
 10
-68.2474942954
 20
-18.4640366315
 30
0
 40
2
 41
14.88888888888889
 71
    5
 72
    1
  1
FOR\PEMERGENCY\PUSE ONLY
  7
Standard
210
0
220
0
230
1
 50
0
 73
    2
 44
1
  0
MTEXT
  5
B6
100
AcDbEntity
  8
TEXT
  6
ByLayer
 62
  256
370
   -1
100
AcDbMText
 10
-36.6617628819
 20
12.6698739371
 30
0
 40
3
 41
19.91666603066059
 71
    5
 72
    1
  1
ED BISDEE\PENGINEER
  7
Standard
210
0
220
0
230
1
 50
0
 73
    2
 44
1
  0
MTEXT
  5
B7
100
AcDbEntity
  8
TEXT
  6
ByLayer
 62
  256
370
   -1
100
AcDbMText
 10
-36.7965487749
 20
-9.83937018522
 30
0
 40
3
 41
23
 71
    5
 72
    1
  1
07941100821\P
  7
Standard
210
0
220
0
230
1
 50
0
 73
    2
 44
1
  0
MTEXT
  5
B8
100
AcDbEntity
  8
TEXT
  6
ByLayer
 62
  256
370
   -1
100
AcDbMText
 10
-10.4378195499
 20
-22.687161501
 30
0
 40
2
 41
28.88888846488484
 71
    5
 72
    1
  1
ED.BISDEE@GMAIL.COM
  7
Standard
210
0
220
0
230
1
 50
0
 73
    2
 44
1
  0
LINE
  5
B9
100
AcDbEntity
  8
_CONST
  6
ByLayer
 62
  256
370
   -1
100
AcDbLine
 10
-78.3802293704
 20
1.68905876933
 11
5.01535593014
 21
1.68905876933
  0
LINE
  5
BA
100
AcDbEntity
  8
_CONST
  6
ByLayer
 62
  256
370
   -1
100
AcDbLine
 10
-78.3802293704
 20
1.48905876933
 11
5.01535593014
 21
1.48905876933
  0
LINE
  5
BB
100
AcDbEntity
  8
OUTLINE
  6
ByLayer
 62
  256
370
   -1
100
AcDbLine
 10
-78.3802293704
 20
-1.96013489197
 11
-78.3802293704
 21
1.48905876933
  0
LINE
  5
BC
100
AcDbEntity
  8
OUTLINE
  6
ByLayer
 62
  256
370
   -1
100
AcDbLine
 10
-78.3802293704
 20
1.68905876933
 11
-78.3802293704
 21
5.13825243063
  0
LINE
  5
BD
100
AcDbEntity
  8
NUBBINS
  6
ByLayer
 62
  256
370
   -1
100
AcDbLine
 10
-78.3802293704
 20
1.48905876933
 11
-78.3802293704
 21
1.68905876933
  0
ARC
  5
BE
100
AcDbEntity
  8
OUTLINE
  6
ByLayer
 62
  256
370
   -1
100
AcDbCircle
 10
-23.3802293704
 20
1.58905876933
 40
5
100
AcDbArc
 50
270
 51
358.854008002
  0
ARC
  5
BF
100
AcDbEntity
  8
OUTLINE
  6
ByLayer
 62
  256
370
   -1
100
AcDbCircle
 10
-23.3802293704
 20
1.58905876933
 40
5
100
AcDbArc
 50
1.14599199839
 51
90
  0
LINE
  5
C0
100
AcDbEntity
  8
OUTLINE
  6
ByLayer
 62
  256
370
   -1
100
AcDbLine
 10
-16.4846440699
 20
7.06372717618
 11
-16.4846440699
 21
1.68905876933
  0
LINE
  5
C1
100
AcDbEntity
  8
OUTLINE
  6
ByLayer
 62
  256
370
   -1
100
AcDbLine
 10
-16.4846440699
 20
1.48905876933
 11
-16.4846440699
 21
-3.86520501182
  0
ARC
  5
C2
100
AcDbEntity
  8
NUBBINS
  6
ByLayer
 62
  256
370
   -1
100
AcDbCircle
 10
-23.3802293704
 20
1.58905876933
 40
5
100
AcDbArc
 50
358.854008002
 51
1.14599199839
  0
LINE
  5
C3
100
AcDbEntity
  8
NUBBINS
  6
ByLayer
 62
  256
370
   -1
100
AcDbLine
 10
-16.4846440699
 20
1.68905876933
 11
-16.4846440699
 21
1.48905876933
  0
LINE
  5
C4
100
AcDbEntity
  8
OUTLINE
  6
ByLayer
 62
  256
370
   -1
100
AcDbLine
 10
-55.966015808
 20
76.58905876932999
 11
-23.3802293704
 21
76.58905876932999
  0
LINE
  5
C5
100
AcDbEntity
  8
OUTLINE
  6
ByLayer
 62
  256
370
   -1
100
AcDbLine
 10
-23.3802293704
 20
66.58905876932999
 11
-55.966015808
 21
66.58905876932999
  0
CIRCLE
  5
C6
100
AcDbEntity
  8
OUTLINE
  6
ByLayer
 62
  256
370
   -1
100
AcDbCircle
 10
-23.3802293704
 20
71.58905876932999
 40
2.5
  0
ARC
  5
C7
100
AcDbEntity
  8
OUTLINE
  6
ByLayer
 62
  256
370
   -1
100
AcDbCircle
 10
-55.966015808
 20
65.58905876932999
 40
1
100
AcDbArc
 50
90
 51
225
  0
ARC
  5
C8
100
AcDbEntity
  8
OUTLINE
  6
ByLayer
 62
  256
370
   -1
100
AcDbCircle
 10
-55.966015808
 20
77.58905876932999
 40
1
100
AcDbArc
 50
135
 51
270
  0
LINE
  5
C9
100
AcDbEntity
  8
OUTLINE
  6
ByLayer
 62
  256
370
   -1
100
AcDbLine
 10
-56.6731225892
 20
64.88195198813
 11
-39.233782761
 21
47.4426121599
  0
ARC
  5
CA
100
AcDbEntity
  8
OUTLINE
  6
ByLayer
 62
  256
370
   -1
100
AcDbCircle
 10
-39.5873361516
 20
47.0890587693
 40
0.5
100
AcDbArc
 50
270
 51
45
  0
LINE
  5
CB
100
AcDbEntity
  8
OUTLINE
  6
ByLayer
 62
  256
370
   -1
100
AcDbLine
 10
-39.233782761
 20
95.7355053787
 11
-56.6731225892
 21
78.29616555052999
  0
ARC
  5
CC
100
AcDbEntity
  8
OUTLINE
  6
ByLayer
 62
  256
370
   -1
100
AcDbCircle
 10
-39.5873361516
 20
96.0890587693
 40
0.5
100
AcDbArc
 50
315
 51
90
  0
LINE
  5
CD
100
AcDbEntity
  8
OUTLINE
  6
ByLayer
 62
  256
370
   -1
100
AcDbLine
 10
-39.5873361516
 20
46.5890587693
 11
-42.7163182777
 21
46.5890587693
  0
ARC
  5
CE
100
AcDbEntity
  8
OUTLINE
  6
ByLayer
 62
  256
370
   -1
100
AcDbCircle
 10
-42.7163182777
 20
49.0890587693
 40
2.5
100
AcDbArc
 50
240.255118703
 51
270
  0
LINE
  5
CF
100
AcDbEntity
  8
OUTLINE
  6
ByLayer
 62
  256
370
   -1
100
AcDbLine
 10
-39.5873361516
 20
96.5890587693
 11
-42.7163182777
 21
96.5890587693
  0
ARC
  5
D0
100
AcDbEntity
  8
OUTLINE
  6
ByLayer
 62
  256
370
   -1
100
AcDbCircle
 10
-42.7163182777
 20
94.0890587693
 40
2.5
100
AcDbArc
 50
90
 51
119.744881297
  0
LINE
  5
D1
100
AcDbEntity
  8
OUTLINE
  6
ByLayer
 62
  256
370
   -1
100
AcDbLine
 10
-43.9566656236
 20
46.918450914
 11
-77.1205767164
 21
65.86925725268
  0
ARC
  5
D2
100
AcDbEntity
  8
OUTLINE
  6
ByLayer
 62
  256
370
   -1
100
AcDbCircle
 10
-75.8802293704
 20
68.03986510803
 40
2.5
100
AcDbArc
 50
180
 51
240.255118703
  0
LINE
  5
D3
100
AcDbEntity
  8
OUTLINE
  6
ByLayer
 62
  256
370
   -1
100
AcDbLine
 10
-68.3802293704
 20
72.98905876933
 11
-68.3802293704
 21
70.18905876933201
  0
LINE
  5
D4
100
AcDbEntity
  8
OUTLINE
  6
ByLayer
 62
  256
370
   -1
100
AcDbLine
 10
-68.3802293704
 20
69.98905876933159
 11
-46.8802293704
 21
69.98905876933159
  0
LINE
  5
D5
100
AcDbEntity
  8
OUTLINE
  6
ByLayer
 62
  256
370
   -1
100
AcDbLine
 10
-68.3802293704
 20
73.18905876933
 11
-46.8802293704
 21
73.18905876933
  0
LINE
  5
D6
100
AcDbEntity
  8
OUTLINE
  6
ByLayer
 62
  256
370
   -1
100
AcDbLine
 10
-46.8802293704
 20
69.98905876933159
 11
-46.8802293704
 21
73.18905876933
  0
LINE
  5
D7
100
AcDbEntity
  8
OUTLINE
  6
ByLayer
 62
  256
370
   -1
100
AcDbLine
 10
-68.3802293704
 20
69.98905876933159
 11
-68.3802293704
 21
73.18905876933
  0
LINE
  5
D8
100
AcDbEntity
  8
OUTLINE
  6
ByLayer
 62
  256
370
   -1
100
AcDbLine
 10
-78.3802293704
 20
68.03986510803
 11
-78.3802293704
 21
71.48905876933
  0
LINE
  5
D9
100
AcDbEntity
  8
NUBBINS
  6
ByLayer
 62
  256
370
   -1
100
AcDbLine
 10
-78.3802293704
 20
71.48905876933
 11
-78.3802293704
 21
71.68905876933
  0
ARC
  5
DA
100
AcDbEntity
  8
OUTLINE
  6
ByLayer
 62
  256
370
   -1
100
AcDbCircle
 10
-23.3802293704
 20
71.58905876932999
 40
5
100
AcDbArc
 50
270
 51
358.854008002
  0
ARC
  5
DB
100
AcDbEntity
  8
OUTLINE
  6
ByLayer
 62
  256
370
   -1
100
AcDbCircle
 10
-23.3802293704
 20
71.58905876932999
 40
5
100
AcDbArc
 50
1.14599199839
 51
90
  0
ARC
  5
DC
100
AcDbEntity
  8
OUTLINE
  6
ByLayer
 62
  256
370
   -1
100
AcDbCircle
 10
56.2224627113
 20
47.0992610822
 40
0.5
100
AcDbArc
 50
135
 51
270
  0
ARC
  5
DD
100
AcDbEntity
  8
OUTLINE
  6
ByLayer
 62
  256
370
   -1
100
AcDbCircle
 10
56.2224627113
 20
96.0992610822
 40
0.5
100
AcDbArc
 50
90
 51
225
  0
ARC
  5
DE
100
AcDbEntity
  8
OUTLINE
  6
ByLayer
 62
  256
370
   -1
100
AcDbCircle
 10
59.3514448374
 20
49.0992610822
 40
2.5
100
AcDbArc
 50
270
 51
299.744881297
  0
ARC
  5
DF
100
AcDbEntity
  8
OUTLINE
  6
ByLayer
 62
  256
370
   -1
100
AcDbCircle
 10
59.3514448374
 20
94.0992610822
 40
2.5
100
AcDbArc
 50
60.25511870310001
 51
90
  0
LINE
  5
E0
100
AcDbEntity
  8
OUTLINE
  6
ByLayer
 62
  256
370
   -1
100
AcDbLine
 10
60.5917921833
 20
46.9286532267
 11
93.75570327614
 21
65.87945956568001
  0
ARC
  5
E1
100
AcDbEntity
  8
OUTLINE
  6
ByLayer
 62
  256
370
   -1
100
AcDbCircle
 10
92.51535593014
 20
68.05006742067999
 40
2.5
100
AcDbArc
 50
299.744881297
 51
360
  0
ARC
  5
E2
100
AcDbEntity
  8
OUTLINE
  6
ByLayer
 62
  256
370
   -1
100
AcDbCircle
 10
92.51535593014
 20
75.14845474367999
 40
2.5
100
AcDbArc
 50
360
 51
60.25511870310001
  0
LINE
  5
E3
100
AcDbEntity
  8
OUTLINE
  6
ByLayer
 62
  256
370
   -1
100
AcDbLine
 10
56.2224627113
 20
46.5992610822
 11
59.3514448374
 21
46.5992610822
  0
LINE
  5
E4
100
AcDbEntity
  8
OUTLINE
  6
ByLayer
 62
  256
370
   -1
100
AcDbLine
 10
56.2224627113
 20
96.5992610822
 11
59.3514448374
 21
96.5992610822
  0
LINE
  5
E5
100
AcDbEntity
  8
OUTLINE
  6
ByLayer
 62
  256
370
   -1
100
AcDbLine
 10
72.78312288309999
 20
64.36702803518
 11
55.8689093207
 21
47.4528144727
  0
ARC
  5
E6
100
AcDbEntity
  8
OUTLINE
  6
ByLayer
 62
  256
370
   -1
100
AcDbCircle
 10
71.0153559301
 20
66.13479498818
 40
2.5
100
AcDbArc
 50
315
 51
360
  0
LINE
  5
E7
100
AcDbEntity
  8
OUTLINE
  6
ByLayer
 62
  256
370
   -1
100
AcDbLine
 10
55.8689093207
 20
95.74570769170001
 11
72.78312288309999
 21
78.83149412918
  0
ARC
  5
E8
100
AcDbEntity
  8
OUTLINE
  6
ByLayer
 62
  256
370
   -1
100
AcDbCircle
 10
71.0153559301
 20
77.06372717618001
 40
2.5
100
AcDbArc
 50
360
 51
45
  0
LINE
  5
E9
100
AcDbEntity
  8
OUTLINE
  6
ByLayer
 62
  256
370
   -1
100
AcDbLine
 10
95.01535593014
 20
69.99926108218057
 11
85.01535593014
 21
69.99926108218057
  0
LINE
  5
EA
100
AcDbEntity
  8
OUTLINE
  6
ByLayer
 62
  256
370
   -1
100
AcDbLine
 10
85.01535593014
 20
69.99926108218057
 11
85.01535593014
 21
73.19926108218
  0
LINE
  5
EB
100
AcDbEntity
  8
OUTLINE
  6
ByLayer
 62
  256
370
   -1
100
AcDbLine
 10
85.01535593014
 20
73.19926108218
 11
95.01535593014
 21
73.19926108218
  0
LINE
  5
EC
100
AcDbEntity
  8
OUTLINE
  6
ByLayer
 62
  256
370
   -1
100
AcDbLine
 10
95.01535593014
 20
73.19926108218
 11
95.01535593014
 21
75.14845387941
  0
LINE
  5
ED
100
AcDbEntity
  8
OUTLINE
  6
ByLayer
 62
  256
370
   -1
100
AcDbLine
 10
95.01535593014
 20
68.05006742067999
 11
95.01535593014
 21
69.99926108218057
  0
LINE
  5
EE
100
AcDbEntity
  8
OUTLINE
  6
ByLayer
 62
  256
370
   -1
100
AcDbLine
 10
73.5153559301
 20
77.06372717618001
 11
73.5153559301
 21
71.68905876933
  0
LINE
  5
EF
100
AcDbEntity
  8
OUTLINE
  6
ByLayer
 62
  256
370
   -1
100
AcDbLine
 10
73.5153559301
 20
71.48905876933
 11
73.5153559301
 21
66.13479498818
  0
ARC
  5
F0
100
AcDbEntity
  8
NUBBINS
  6
ByLayer
 62
  256
370
   -1
100
AcDbCircle
 10
66.6197706296
 20
71.58905876932999
 40
5
100
AcDbArc
 50
358.854008002
 51
1.14599199839
  0
LINE
  5
F1
100
AcDbEntity
  8
NUBBINS
  6
ByLayer
 62
  256
370
   -1
100
AcDbLine
 10
73.5153559301
 20
71.68905876933
 11
73.5153559301
 21
71.48905876933
  0
LINE
  5
F2
100
AcDbEntity
  8
_CONST
  6
ByLayer
 62
  256
370
   -1
100
AcDbLine
 10
-78.3802293704
 20
71.48905876933
 11
-23.3802293704
 21
71.58905876932999
  0
LINE
  5
F3
100
AcDbEntity
  8
OUTLINE
  6
ByLayer
 62
  256
370
   -1
100
AcDbLine
 10
-78.3802293704
 20
70.68905876933
 11
-78.3802293704
 21
80.11217441930486
  0
LINE
  5
F4
100
AcDbEntity
  8
OUTLINE
  6
ByLayer
 62
  256
370
   -1
100
AcDbLine
 10
-43.9566656236
 20
96.2596666246
 11
-78.85706300065169
 21
76.31658240927119
  0
DIMENSION
  5
F5
100
AcDbEntity
  8
_CONST
  6
ByLayer
 62
  256
370
   -1
100
AcDbDimension
  2
*D1
 10
-78.3802293704
 20
76.58905876941324
 30
0
 11
-80.2552293704
 21
74.06683550585529
 31
0
 70
   32
 71
    5
  3
Standard
 53
0
210
0
220
0
230
1
100
AcDbAlignedDimension
 13
-78.3802293704
 23
71.54461224229736
 33
0
 14
-78.3802293704
 24
76.58905876941324
 34
0
 50
90
100
AcDbRotatedDimension
  0
DIMENSION
  5
F6
100
AcDbEntity
  8
_CONST
  6
ByLayer
 62
  256
370
   -1
100
AcDbDimension
  2
*D2
 10
-58.11651318194252
 20
86.0766379831387
 30
0
 11
-68.24837127617126
 21
87.9516379831387
 31
0
 70
   32
 71
    5
  3
Standard
 53
0
210
0
220
0
230
1
100
AcDbAlignedDimension
 13
-78.3802293704
 23
71.48905876933
 33
0
 14
-58.11651318194252
 24
76.53133857970919
 34
0
100
AcDbRotatedDimension
  0
DIMENSION
  5
F7
100
AcDbEntity
  8
_CONST
  6
ByLayer
 62
  256
370
   -1
100
AcDbDimension
  2
*D3
 10
-29.85563959340958
 20
96.5890587693
 30
0
 11
-31.73063959340958
 21
84.07171787741932
 31
0
 70
   32
 71
    5
  3
Standard
 53
0
210
0
220
0
230
1
100
AcDbAlignedDimension
 13
-42.45521045564933
 23
71.55437698553864
 33
0
 14
-41.65343265854725
 24
96.5890587693
 34
0
 50
90
100
AcDbRotatedDimension
  0
DIMENSION
  5
F8
100
AcDbEntity
  8
_CONST
  6
ByLayer
 62
  256
370
   -1
100
AcDbDimension
  2
*D4
 10
-39.5873361516
 20
92.36356950662669
 30
0
 11
-58.95913076822978
 21
94.23856950662669
 31
0
 70
   32
 71
    5
  3
Standard
 53
0
210
0
220
0
230
1
100
AcDbAlignedDimension
 13
-78.33092538485955
 23
71.58932934763804
 33
0
 14
-39.5873361516
 24
96.5890587693
 34
0
100
AcDbRotatedDimension
  0
DIMENSION
  5
F9
100
AcDbEntity
  8
_CONST
  6
ByLayer
 62
  256
370
   -1
100
AcDbDimension
  2
*D5
 10
-42.7163182777
 20
96.5890587693
 30
0
 11
-41.15182721465
 21
98.4640587693
 31
0
 70
   32
 71
    5
  3
Standard
 53
0
210
0
220
0
230
1
100
AcDbAlignedDimension
 13
-39.5873361516
 23
96.5890587693
 33
0
 14
-42.7163182777
 24
96.5890587693
 34
0
100
AcDbRotatedDimension
  0
ENDSEC
  0
SECTION
  2
OBJECTS
  0
DICTIONARY
  5
C
330
0
100
AcDbDictionary
281
    1
  3
ACAD_GROUP
350
D
  0
DICTIONARY
  5
D
330
C
100
AcDbDictionary
281
    1
  0
ENDSEC
  0
EOF
