solid OpenSCAD_Model
  facet normal -1 0 0
    outer loop
      vertex -5.45663 -0.689332 0
      vertex -5.45663 0.689332 1.5
      vertex -5.45663 0.689332 0
    endloop
  endfacet
  facet normal -1 -0 0
    outer loop
      vertex -5.45663 0.689332 1.5
      vertex -5.45663 -0.689332 0
      vertex -5.45663 -0.689332 1.5
    endloop
  endfacet
  facet normal -0.0627925 0.998027 0
    outer loop
      vertex 0.345347 5.48915 0
      vertex -1.0306 5.40258 1.5
      vertex 0.345347 5.48915 1.5
    endloop
  endfacet
  facet normal -0.0627925 0.998027 0
    outer loop
      vertex -1.0306 5.40258 1.5
      vertex 0.345347 5.48915 0
      vertex -1.0306 5.40258 0
    endloop
  endfacet
  facet normal -0.728968 -0.684548 0
    outer loop
      vertex -3.50583 -4.23782 0
      vertex -4.44959 -3.23282 1.5
      vertex -4.44959 -3.23282 0
    endloop
  endfacet
  facet normal -0.728968 -0.684548 0
    outer loop
      vertex -4.44959 -3.23282 1.5
      vertex -3.50583 -4.23782 0
      vertex -3.50583 -4.23782 1.5
    endloop
  endfacet
  facet normal 0 0 -1
    outer loop
      vertex 5.37367 -1 0
      vertex 3.39004 -0.870414 0
      vertex 3.5 0 0
    endloop
  endfacet
  facet normal 0 0 -1
    outer loop
      vertex 4.81969 -2.64964 0
      vertex 3.06707 -1.68614 0
      vertex 3.39004 -0.870414 0
    endloop
  endfacet
  facet normal 0 0 -1
    outer loop
      vertex 2.55139 -2.39591 0
      vertex 4.00933 -3.76501 0
      vertex 2.94705 -4.6438 0
    endloop
  endfacet
  facet normal 0 0 -1
    outer loop
      vertex 4.00933 -3.76501 0
      vertex 2.55139 -2.39591 0
      vertex 3.06707 -1.68614 0
    endloop
  endfacet
  facet normal 0 0 -1
    outer loop
      vertex 2.94705 -4.6438 0
      vertex 1.87539 -2.95515 0
      vertex 2.55139 -2.39591 0
    endloop
  endfacet
  facet normal 0 0 -1
    outer loop
      vertex 1.69959 -5.23081 0
      vertex 1.87539 -2.95515 0
      vertex 2.94705 -4.6438 0
    endloop
  endfacet
  facet normal 0 0 -1
    outer loop
      vertex 1.69959 -5.23081 0
      vertex 1.08156 -3.3287 0
      vertex 1.87539 -2.95515 0
    endloop
  endfacet
  facet normal 0 0 -1
    outer loop
      vertex 0.345347 -5.48915 0
      vertex 1.08156 -3.3287 0
      vertex 1.69959 -5.23081 0
    endloop
  endfacet
  facet normal 0 0 -1
    outer loop
      vertex 0.345347 -5.48915 0
      vertex 0.219767 -3.49309 0
      vertex 1.08156 -3.3287 0
    endloop
  endfacet
  facet normal 0 0 -1
    outer loop
      vertex 0.345347 -5.48915 0
      vertex -0.655834 -3.438 0
      vertex 0.219767 -3.49309 0
    endloop
  endfacet
  facet normal 0 0 -1
    outer loop
      vertex -1.0306 -5.40258 0
      vertex -0.655834 -3.438 0
      vertex 0.345347 -5.48915 0
    endloop
  endfacet
  facet normal 0 0 -1
    outer loop
      vertex -1.0306 -5.40258 0
      vertex -1.49023 -3.16689 0
      vertex -0.655834 -3.438 0
    endloop
  endfacet
  facet normal 0 0 -1
    outer loop
      vertex -2.34179 -4.97655 0
      vertex -1.49023 -3.16689 0
      vertex -1.0306 -5.40258 0
    endloop
  endfacet
  facet normal -0 0 -1
    outer loop
      vertex -1.49023 -3.16689 0
      vertex -2.34179 -4.97655 0
      vertex -2.23098 -2.6968 0
    endloop
  endfacet
  facet normal 0 0 -1
    outer loop
      vertex -3.50583 -4.23782 0
      vertex -2.23098 -2.6968 0
      vertex -2.34179 -4.97655 0
    endloop
  endfacet
  facet normal -0 0 -1
    outer loop
      vertex -2.23098 -2.6968 0
      vertex -3.50583 -4.23782 0
      vertex -2.83156 -2.05725 0
    endloop
  endfacet
  facet normal 0 0 -1
    outer loop
      vertex -4.44959 -3.23282 0
      vertex -2.83156 -2.05725 0
      vertex -3.50583 -4.23782 0
    endloop
  endfacet
  facet normal 0 0 -1
    outer loop
      vertex -5.11377 -2.02468 0
      vertex -3.25422 -1.28843 0
      vertex -4.44959 -3.23282 0
    endloop
  endfacet
  facet normal -0 0 -1
    outer loop
      vertex -2.83156 -2.05725 0
      vertex -4.44959 -3.23282 0
      vertex -3.25422 -1.28843 0
    endloop
  endfacet
  facet normal 0 0 -1
    outer loop
      vertex 0.219767 3.49309 0
      vertex 1.1902 5.32798 0
      vertex 0.662381 3.40866 0
    endloop
  endfacet
  facet normal -0 0 -1
    outer loop
      vertex 1.1902 5.32798 0
      vertex 0.219767 3.49309 0
      vertex 0.345347 5.48915 0
    endloop
  endfacet
  facet normal 0 0 -1
    outer loop
      vertex -0.655834 3.438 0
      vertex 0.345347 5.48915 0
      vertex 0.219767 3.49309 0
    endloop
  endfacet
  facet normal 0 0 -1
    outer loop
      vertex -0.655834 3.438 0
      vertex -1.0306 5.40258 0
      vertex 0.345347 5.48915 0
    endloop
  endfacet
  facet normal 0 0 -1
    outer loop
      vertex -1.49023 3.16689 0
      vertex -1.0306 5.40258 0
      vertex -0.655834 3.438 0
    endloop
  endfacet
  facet normal 0 0 -1
    outer loop
      vertex -2.34179 4.97655 0
      vertex -1.49023 3.16689 0
      vertex -2.23098 2.6968 0
    endloop
  endfacet
  facet normal 0 0 -1
    outer loop
      vertex -1.49023 3.16689 0
      vertex -2.34179 4.97655 0
      vertex -1.0306 5.40258 0
    endloop
  endfacet
  facet normal 0 0 -1
    outer loop
      vertex -3.50583 4.23782 0
      vertex -2.23098 2.6968 0
      vertex -2.83156 2.05725 0
    endloop
  endfacet
  facet normal 0 0 -1
    outer loop
      vertex -4.44959 3.23282 0
      vertex -2.83156 2.05725 0
      vertex -3.25422 1.28843 0
    endloop
  endfacet
  facet normal 0 0 -1
    outer loop
      vertex -5.11377 2.02468 0
      vertex -3.25422 1.28843 0
      vertex -3.4724 0.438665 0
    endloop
  endfacet
  facet normal 0 0 -1
    outer loop
      vertex -2.23098 2.6968 0
      vertex -3.50583 4.23782 0
      vertex -2.34179 4.97655 0
    endloop
  endfacet
  facet normal -0 0 -1
    outer loop
      vertex -3.25422 -1.28843 0
      vertex -5.11377 -2.02468 0
      vertex -3.4724 -0.438665 0
    endloop
  endfacet
  facet normal 0 0 -1
    outer loop
      vertex -5.45663 -0.689332 0
      vertex -3.4724 -0.438665 0
      vertex -5.11377 -2.02468 0
    endloop
  endfacet
  facet normal 0 0 -1
    outer loop
      vertex -2.83156 2.05725 0
      vertex -4.44959 3.23282 0
      vertex -3.50583 4.23782 0
    endloop
  endfacet
  facet normal -0 0 -1
    outer loop
      vertex -3.4724 -0.438665 0
      vertex -5.45663 -0.689332 0
      vertex -3.4724 0.438665 0
    endloop
  endfacet
  facet normal 0 0 -1
    outer loop
      vertex -3.25422 1.28843 0
      vertex -5.11377 2.02468 0
      vertex -4.44959 3.23282 0
    endloop
  endfacet
  facet normal 0 0 -1
    outer loop
      vertex -5.45663 0.689332 0
      vertex -3.4724 0.438665 0
      vertex -5.45663 -0.689332 0
    endloop
  endfacet
  facet normal 0 0 -1
    outer loop
      vertex -3.4724 0.438665 0
      vertex -5.45663 0.689332 0
      vertex -5.11377 2.02468 0
    endloop
  endfacet
  facet normal 0 0 -1
    outer loop
      vertex 13 0 0
      vertex 15 0 0
      vertex 14.9057 -0.746069 0
    endloop
  endfacet
  facet normal 0 0 -1
    outer loop
      vertex 12.9686 -0.24869 0
      vertex 14.9057 -0.746069 0
      vertex 14.6289 -1.44526 0
    endloop
  endfacet
  facet normal 0 0 -1
    outer loop
      vertex 15 0 0
      vertex 13 0 0
      vertex 14.9057 0.746069 0
    endloop
  endfacet
  facet normal 0 0 -1
    outer loop
      vertex 12.8763 -0.481753 0
      vertex 14.6289 -1.44526 0
      vertex 14.1869 -2.05364 0
    endloop
  endfacet
  facet normal 0 0 -1
    outer loop
      vertex 12.9686 0.24869 0
      vertex 14.9057 0.746069 0
      vertex 13 0 0
    endloop
  endfacet
  facet normal 0 0 -1
    outer loop
      vertex 12.729 -0.684546 0
      vertex 14.1869 -2.05364 0
      vertex 13.6075 -2.53298 0
    endloop
  endfacet
  facet normal -0 0 -1
    outer loop
      vertex 14.9057 0.746069 0
      vertex 12.9686 0.24869 0
      vertex 14.6289 1.44526 0
    endloop
  endfacet
  facet normal 0 0 -1
    outer loop
      vertex 12.8763 0.481753 0
      vertex 14.6289 1.44526 0
      vertex 12.9686 0.24869 0
    endloop
  endfacet
  facet normal 0 0 -1
    outer loop
      vertex 14.9057 -0.746069 0
      vertex 12.9686 -0.24869 0
      vertex 13 0 0
    endloop
  endfacet
  facet normal 0 0 -1
    outer loop
      vertex 12.5358 -0.844327 0
      vertex 13.6075 -2.53298 0
      vertex 12.9271 -2.85317 0
    endloop
  endfacet
  facet normal 0 0 -1
    outer loop
      vertex 14.6289 -1.44526 0
      vertex 12.8763 -0.481753 0
      vertex 12.9686 -0.24869 0
    endloop
  endfacet
  facet normal 0 0 -1
    outer loop
      vertex 14.1869 -2.05364 0
      vertex 12.729 -0.684546 0
      vertex 12.8763 -0.481753 0
    endloop
  endfacet
  facet normal 0 0 -1
    outer loop
      vertex 13.6075 -2.53298 0
      vertex 12.5358 -0.844327 0
      vertex 12.729 -0.684546 0
    endloop
  endfacet
  facet normal 0 0 -1
    outer loop
      vertex 12.9271 -2.85317 0
      vertex 12.309 -0.951056 0
      vertex 12.5358 -0.844327 0
    endloop
  endfacet
  facet normal 0 0 -1
    outer loop
      vertex 12.1884 -2.99408 0
      vertex 12.309 -0.951056 0
      vertex 12.9271 -2.85317 0
    endloop
  endfacet
  facet normal 0 0 -1
    outer loop
      vertex 12.1884 -2.99408 0
      vertex 12.0628 -0.998026 0
      vertex 12.309 -0.951056 0
    endloop
  endfacet
  facet normal 0 0 -1
    outer loop
      vertex 12.1884 -2.99408 0
      vertex 11.8126 -0.982286 0
      vertex 12.0628 -0.998026 0
    endloop
  endfacet
  facet normal 0 0 -1
    outer loop
      vertex 11.4379 -2.94686 0
      vertex 11.8126 -0.982286 0
      vertex 12.1884 -2.99408 0
    endloop
  endfacet
  facet normal -0 0 -1
    outer loop
      vertex 11.8126 -0.982286 0
      vertex 11.4379 -2.94686 0
      vertex 11.5742 -0.904826 0
    endloop
  endfacet
  facet normal 0 0 -1
    outer loop
      vertex 10.7227 -2.71448 0
      vertex 11.5742 -0.904826 0
      vertex 11.4379 -2.94686 0
    endloop
  endfacet
  facet normal -0 0 -1
    outer loop
      vertex 11.5742 -0.904826 0
      vertex 10.7227 -2.71448 0
      vertex 11.3626 -0.770513 0
    endloop
  endfacet
  facet normal 0 0 -1
    outer loop
      vertex 10.0877 -2.31154 0
      vertex 11.3626 -0.770513 0
      vertex 10.7227 -2.71448 0
    endloop
  endfacet
  facet normal -0 0 -1
    outer loop
      vertex 11.3626 -0.770513 0
      vertex 10.0877 -2.31154 0
      vertex 11.191 -0.587785 0
    endloop
  endfacet
  facet normal -0 0 -1
    outer loop
      vertex 11.191 -0.587785 0
      vertex 9.57295 -1.76336 0
      vertex 11.0702 -0.368124 0
    endloop
  endfacet
  facet normal 0 0 -1
    outer loop
      vertex 9.57295 -1.76336 0
      vertex 11.191 -0.587785 0
      vertex 10.0877 -2.31154 0
    endloop
  endfacet
  facet normal -0 0 -1
    outer loop
      vertex 14.6289 1.44526 0
      vertex 12.8763 0.481753 0
      vertex 14.1869 2.05364 0
    endloop
  endfacet
  facet normal 0 0 -1
    outer loop
      vertex 12.729 0.684546 0
      vertex 14.1869 2.05364 0
      vertex 12.8763 0.481753 0
    endloop
  endfacet
  facet normal -0 0 -1
    outer loop
      vertex 14.1869 2.05364 0
      vertex 12.729 0.684546 0
      vertex 13.6075 2.53298 0
    endloop
  endfacet
  facet normal 0 0 -1
    outer loop
      vertex 12.5358 0.844327 0
      vertex 13.6075 2.53298 0
      vertex 12.729 0.684546 0
    endloop
  endfacet
  facet normal -0 0 -1
    outer loop
      vertex 13.6075 2.53298 0
      vertex 12.5358 0.844327 0
      vertex 12.9271 2.85317 0
    endloop
  endfacet
  facet normal 0 0 -1
    outer loop
      vertex 12.309 0.951056 0
      vertex 12.9271 2.85317 0
      vertex 12.5358 0.844327 0
    endloop
  endfacet
  facet normal 0 0 -1
    outer loop
      vertex 12.309 0.951056 0
      vertex 12.1884 2.99408 0
      vertex 12.9271 2.85317 0
    endloop
  endfacet
  facet normal 0 0 -1
    outer loop
      vertex 12.0628 0.998026 0
      vertex 12.1884 2.99408 0
      vertex 12.309 0.951056 0
    endloop
  endfacet
  facet normal 0 0 -1
    outer loop
      vertex 11.8126 0.982286 0
      vertex 12.1884 2.99408 0
      vertex 12.0628 0.998026 0
    endloop
  endfacet
  facet normal 0 0 -1
    outer loop
      vertex 11.4379 2.94686 0
      vertex 11.8126 0.982286 0
      vertex 11.5742 0.904826 0
    endloop
  endfacet
  facet normal 0 0 -1
    outer loop
      vertex 11.8126 0.982286 0
      vertex 11.4379 2.94686 0
      vertex 12.1884 2.99408 0
    endloop
  endfacet
  facet normal 0 0 -1
    outer loop
      vertex 10.7227 2.71448 0
      vertex 11.5742 0.904826 0
      vertex 11.3626 0.770513 0
    endloop
  endfacet
  facet normal 0 0 -1
    outer loop
      vertex 10.0877 2.31154 0
      vertex 11.3626 0.770513 0
      vertex 11.191 0.587785 0
    endloop
  endfacet
  facet normal 0 0 -1
    outer loop
      vertex 9.57295 1.76336 0
      vertex 11.191 0.587785 0
      vertex 11.0702 0.368124 0
    endloop
  endfacet
  facet normal 0 0 -1
    outer loop
      vertex 9.18387 1 0
      vertex 11.0702 0.368124 0
      vertex 11.0079 0.125333 0
    endloop
  endfacet
  facet normal 0 0 -1
    outer loop
      vertex 11.5742 0.904826 0
      vertex 10.7227 2.71448 0
      vertex 11.4379 2.94686 0
    endloop
  endfacet
  facet normal 0 0 -1
    outer loop
      vertex 9.21067 -1.10437 0
      vertex 11.0702 -0.368124 0
      vertex 9.57295 -1.76336 0
    endloop
  endfacet
  facet normal 0 0 -1
    outer loop
      vertex 9.18387 -1 0
      vertex 11.0702 -0.368124 0
      vertex 9.21067 -1.10437 0
    endloop
  endfacet
  facet normal 0 0 -1
    outer loop
      vertex 11.3626 0.770513 0
      vertex 10.0877 2.31154 0
      vertex 10.7227 2.71448 0
    endloop
  endfacet
  facet normal -0 0 -1
    outer loop
      vertex 11.0702 -0.368124 0
      vertex 9.18387 -1 0
      vertex 11.0079 -0.125333 0
    endloop
  endfacet
  facet normal 0 0 -1
    outer loop
      vertex 9.18387 1 0
      vertex 11.0079 0.125333 0
      vertex 9.18387 -1 0
    endloop
  endfacet
  facet normal -0 0 -1
    outer loop
      vertex 11.0079 -0.125333 0
      vertex 9.18387 -1 0
      vertex 11.0079 0.125333 0
    endloop
  endfacet
  facet normal 0 0 -1
    outer loop
      vertex 11.0702 0.368124 0
      vertex 9.18387 1 0
      vertex 9.21067 1.10437 0
    endloop
  endfacet
  facet normal 0 0 -1
    outer loop
      vertex 11.191 0.587785 0
      vertex 9.57295 1.76336 0
      vertex 10.0877 2.31154 0
    endloop
  endfacet
  facet normal 0 0 -1
    outer loop
      vertex 11.0702 0.368124 0
      vertex 9.21067 1.10437 0
      vertex 9.57295 1.76336 0
    endloop
  endfacet
  facet normal 0 0 -1
    outer loop
      vertex 9.18387 -1 0
      vertex 5.5 1 0
      vertex 9.18387 1 0
    endloop
  endfacet
  facet normal 0 0 -1
    outer loop
      vertex 5.37367 -1 0
      vertex 5.5 1 0
      vertex 9.18387 -1 0
    endloop
  endfacet
  facet normal 0 0 -1
    outer loop
      vertex 3.39004 -0.870414 0
      vertex 5.37367 -1 0
      vertex 5.32721 -1.36779 0
    endloop
  endfacet
  facet normal 0 0 -1
    outer loop
      vertex 3.39004 -0.870414 0
      vertex 5.32721 -1.36779 0
      vertex 4.81969 -2.64964 0
    endloop
  endfacet
  facet normal 0 0 -1
    outer loop
      vertex 3.06707 -1.68614 0
      vertex 4.81969 -2.64964 0
      vertex 4.00933 -3.76501 0
    endloop
  endfacet
  facet normal 0 0 -1
    outer loop
      vertex 5.37367 -1 0
      vertex 3.5 0 0
      vertex 5.5 1 0
    endloop
  endfacet
  facet normal 0 0 -1
    outer loop
      vertex 3.39004 0.870414 0
      vertex 5.5 1 0
      vertex 3.5 0 0
    endloop
  endfacet
  facet normal -0 0 -1
    outer loop
      vertex 5.5 1 0
      vertex 3.39004 0.870414 0
      vertex 3.33873 1 0
    endloop
  endfacet
  facet normal -0.728968 0.684548 0
    outer loop
      vertex -4.44959 3.23282 0
      vertex -3.50583 4.23782 1.5
      vertex -3.50583 4.23782 0
    endloop
  endfacet
  facet normal -0.728968 0.684548 0
    outer loop
      vertex -3.50583 4.23782 1.5
      vertex -4.44959 3.23282 0
      vertex -4.44959 3.23282 1.5
    endloop
  endfacet
  facet normal -0.876307 0.481753 0
    outer loop
      vertex -5.11377 2.02468 0
      vertex -4.44959 3.23282 1.5
      vertex -4.44959 3.23282 0
    endloop
  endfacet
  facet normal -0.876307 0.481753 0
    outer loop
      vertex -4.44959 3.23282 1.5
      vertex -5.11377 2.02468 0
      vertex -5.11377 2.02468 1.5
    endloop
  endfacet
  facet normal -0.535831 0.844325 0
    outer loop
      vertex -2.34179 4.97655 0
      vertex -3.50583 4.23782 1.5
      vertex -2.34179 4.97655 1.5
    endloop
  endfacet
  facet normal -0.535831 0.844325 0
    outer loop
      vertex -3.50583 4.23782 1.5
      vertex -2.34179 4.97655 0
      vertex -3.50583 4.23782 0
    endloop
  endfacet
  facet normal -0.968583 -0.248691 0
    outer loop
      vertex -5.11377 -2.02468 0
      vertex -5.45663 -0.689332 1.5
      vertex -5.45663 -0.689332 0
    endloop
  endfacet
  facet normal -0.968583 -0.248691 0
    outer loop
      vertex -5.45663 -0.689332 1.5
      vertex -5.11377 -2.02468 0
      vertex -5.11377 -2.02468 1.5
    endloop
  endfacet
  facet normal 0.187388 0.982286 -0
    outer loop
      vertex 1.1902 5.32798 0
      vertex 0.345347 5.48915 1.5
      vertex 1.1902 5.32798 1.5
    endloop
  endfacet
  facet normal 0.187388 0.982286 0
    outer loop
      vertex 0.345347 5.48915 1.5
      vertex 1.1902 5.32798 0
      vertex 0.345347 5.48915 0
    endloop
  endfacet
  facet normal -0.968583 0.248691 0
    outer loop
      vertex -5.45663 0.689332 0
      vertex -5.11377 2.02468 1.5
      vertex -5.11377 2.02468 0
    endloop
  endfacet
  facet normal -0.968583 0.248691 0
    outer loop
      vertex -5.11377 2.02468 1.5
      vertex -5.45663 0.689332 0
      vertex -5.45663 0.689332 1.5
    endloop
  endfacet
  facet normal 0 0 1
    outer loop
      vertex 0.219767 3.49309 1.5
      vertex 1.1902 5.32798 1.5
      vertex 0.345347 5.48915 1.5
    endloop
  endfacet
  facet normal 0 0 1
    outer loop
      vertex 1.1902 5.32798 1.5
      vertex 0.219767 3.49309 1.5
      vertex 0.662381 3.40866 1.5
    endloop
  endfacet
  facet normal 0 0 1
    outer loop
      vertex 0.345347 5.48915 1.5
      vertex -0.655834 3.438 1.5
      vertex 0.219767 3.49309 1.5
    endloop
  endfacet
  facet normal -0 0 1
    outer loop
      vertex -1.0306 5.40258 1.5
      vertex -0.655834 3.438 1.5
      vertex 0.345347 5.48915 1.5
    endloop
  endfacet
  facet normal 0 0 1
    outer loop
      vertex -1.0306 5.40258 1.5
      vertex -1.49023 3.16689 1.5
      vertex -0.655834 3.438 1.5
    endloop
  endfacet
  facet normal -0 0 1
    outer loop
      vertex -2.34179 4.97655 1.5
      vertex -1.49023 3.16689 1.5
      vertex -1.0306 5.40258 1.5
    endloop
  endfacet
  facet normal 0 0 1
    outer loop
      vertex -1.49023 3.16689 1.5
      vertex -2.34179 4.97655 1.5
      vertex -2.23098 2.6968 1.5
    endloop
  endfacet
  facet normal -0 0 1
    outer loop
      vertex -3.50583 4.23782 1.5
      vertex -2.23098 2.6968 1.5
      vertex -2.34179 4.97655 1.5
    endloop
  endfacet
  facet normal 0 0 1
    outer loop
      vertex -2.23098 2.6968 1.5
      vertex -3.50583 4.23782 1.5
      vertex -2.83156 2.05725 1.5
    endloop
  endfacet
  facet normal -0 0 1
    outer loop
      vertex -4.44959 3.23282 1.5
      vertex -2.83156 2.05725 1.5
      vertex -3.50583 4.23782 1.5
    endloop
  endfacet
  facet normal -0 0 1
    outer loop
      vertex -5.11377 2.02468 1.5
      vertex -3.25422 1.28843 1.5
      vertex -4.44959 3.23282 1.5
    endloop
  endfacet
  facet normal 0 0 1
    outer loop
      vertex -2.83156 2.05725 1.5
      vertex -4.44959 3.23282 1.5
      vertex -3.25422 1.28843 1.5
    endloop
  endfacet
  facet normal -0 0 1
    outer loop
      vertex 3.06707 -1.68614 1.5
      vertex 4.81969 -2.64964 1.5
      vertex 3.39004 -0.870414 1.5
    endloop
  endfacet
  facet normal 0 0 1
    outer loop
      vertex 4.81969 -2.64964 1.5
      vertex 3.06707 -1.68614 1.5
      vertex 4.00933 -3.76501 1.5
    endloop
  endfacet
  facet normal -0 0 1
    outer loop
      vertex 2.55139 -2.39591 1.5
      vertex 4.00933 -3.76501 1.5
      vertex 3.06707 -1.68614 1.5
    endloop
  endfacet
  facet normal 0 0 1
    outer loop
      vertex 4.00933 -3.76501 1.5
      vertex 2.55139 -2.39591 1.5
      vertex 2.94705 -4.6438 1.5
    endloop
  endfacet
  facet normal -0 0 1
    outer loop
      vertex 1.87539 -2.95515 1.5
      vertex 2.94705 -4.6438 1.5
      vertex 2.55139 -2.39591 1.5
    endloop
  endfacet
  facet normal 0 0 1
    outer loop
      vertex 1.87539 -2.95515 1.5
      vertex 1.69959 -5.23081 1.5
      vertex 2.94705 -4.6438 1.5
    endloop
  endfacet
  facet normal -0 0 1
    outer loop
      vertex 1.08156 -3.3287 1.5
      vertex 1.69959 -5.23081 1.5
      vertex 1.87539 -2.95515 1.5
    endloop
  endfacet
  facet normal 0 0 1
    outer loop
      vertex 1.08156 -3.3287 1.5
      vertex 0.345347 -5.48915 1.5
      vertex 1.69959 -5.23081 1.5
    endloop
  endfacet
  facet normal -0 0 1
    outer loop
      vertex 0.219767 -3.49309 1.5
      vertex 0.345347 -5.48915 1.5
      vertex 1.08156 -3.3287 1.5
    endloop
  endfacet
  facet normal 0 0 1
    outer loop
      vertex -0.655834 -3.438 1.5
      vertex 0.345347 -5.48915 1.5
      vertex 0.219767 -3.49309 1.5
    endloop
  endfacet
  facet normal 0 0 1
    outer loop
      vertex -0.655834 -3.438 1.5
      vertex -1.0306 -5.40258 1.5
      vertex 0.345347 -5.48915 1.5
    endloop
  endfacet
  facet normal 0 0 1
    outer loop
      vertex -1.49023 -3.16689 1.5
      vertex -1.0306 -5.40258 1.5
      vertex -0.655834 -3.438 1.5
    endloop
  endfacet
  facet normal 0 0 1
    outer loop
      vertex -2.34179 -4.97655 1.5
      vertex -1.49023 -3.16689 1.5
      vertex -2.23098 -2.6968 1.5
    endloop
  endfacet
  facet normal 0 0 1
    outer loop
      vertex -1.49023 -3.16689 1.5
      vertex -2.34179 -4.97655 1.5
      vertex -1.0306 -5.40258 1.5
    endloop
  endfacet
  facet normal 0 0 1
    outer loop
      vertex -3.50583 -4.23782 1.5
      vertex -2.23098 -2.6968 1.5
      vertex -2.83156 -2.05725 1.5
    endloop
  endfacet
  facet normal 0 0 1
    outer loop
      vertex -4.44959 -3.23282 1.5
      vertex -2.83156 -2.05725 1.5
      vertex -3.25422 -1.28843 1.5
    endloop
  endfacet
  facet normal 0 0 1
    outer loop
      vertex -5.11377 -2.02468 1.5
      vertex -3.25422 -1.28843 1.5
      vertex -3.4724 -0.438665 1.5
    endloop
  endfacet
  facet normal 0 0 1
    outer loop
      vertex -2.23098 -2.6968 1.5
      vertex -3.50583 -4.23782 1.5
      vertex -2.34179 -4.97655 1.5
    endloop
  endfacet
  facet normal 0 0 1
    outer loop
      vertex -3.25422 1.28843 1.5
      vertex -5.11377 2.02468 1.5
      vertex -3.4724 0.438665 1.5
    endloop
  endfacet
  facet normal -0 0 1
    outer loop
      vertex -5.45663 0.689332 1.5
      vertex -3.4724 0.438665 1.5
      vertex -5.11377 2.02468 1.5
    endloop
  endfacet
  facet normal 0 0 1
    outer loop
      vertex -2.83156 -2.05725 1.5
      vertex -4.44959 -3.23282 1.5
      vertex -3.50583 -4.23782 1.5
    endloop
  endfacet
  facet normal 0 0 1
    outer loop
      vertex -3.4724 0.438665 1.5
      vertex -5.45663 0.689332 1.5
      vertex -3.4724 -0.438665 1.5
    endloop
  endfacet
  facet normal 0 0 1
    outer loop
      vertex -3.25422 -1.28843 1.5
      vertex -5.11377 -2.02468 1.5
      vertex -4.44959 -3.23282 1.5
    endloop
  endfacet
  facet normal 0 0 1
    outer loop
      vertex -5.45663 -0.689332 1.5
      vertex -3.4724 -0.438665 1.5
      vertex -5.45663 0.689332 1.5
    endloop
  endfacet
  facet normal 0 0 1
    outer loop
      vertex -3.4724 -0.438665 1.5
      vertex -5.45663 -0.689332 1.5
      vertex -5.11377 -2.02468 1.5
    endloop
  endfacet
  facet normal 0 0 1
    outer loop
      vertex 13 0 1.5
      vertex 15 0 1.5
      vertex 14.9057 0.746069 1.5
    endloop
  endfacet
  facet normal 0 0 1
    outer loop
      vertex 12.9686 0.24869 1.5
      vertex 14.9057 0.746069 1.5
      vertex 14.6289 1.44526 1.5
    endloop
  endfacet
  facet normal 0 0 1
    outer loop
      vertex 15 0 1.5
      vertex 13 0 1.5
      vertex 14.9057 -0.746069 1.5
    endloop
  endfacet
  facet normal 0 0 1
    outer loop
      vertex 12.8763 0.481753 1.5
      vertex 14.6289 1.44526 1.5
      vertex 14.1869 2.05364 1.5
    endloop
  endfacet
  facet normal -0 0 1
    outer loop
      vertex 12.9686 -0.24869 1.5
      vertex 14.9057 -0.746069 1.5
      vertex 13 0 1.5
    endloop
  endfacet
  facet normal 0 0 1
    outer loop
      vertex 12.729 0.684546 1.5
      vertex 14.1869 2.05364 1.5
      vertex 13.6075 2.53298 1.5
    endloop
  endfacet
  facet normal 0 0 1
    outer loop
      vertex 14.9057 -0.746069 1.5
      vertex 12.9686 -0.24869 1.5
      vertex 14.6289 -1.44526 1.5
    endloop
  endfacet
  facet normal -0 0 1
    outer loop
      vertex 12.8763 -0.481753 1.5
      vertex 14.6289 -1.44526 1.5
      vertex 12.9686 -0.24869 1.5
    endloop
  endfacet
  facet normal 0 0 1
    outer loop
      vertex 14.9057 0.746069 1.5
      vertex 12.9686 0.24869 1.5
      vertex 13 0 1.5
    endloop
  endfacet
  facet normal 0 0 1
    outer loop
      vertex 12.5358 0.844327 1.5
      vertex 13.6075 2.53298 1.5
      vertex 12.9271 2.85317 1.5
    endloop
  endfacet
  facet normal 0 0 1
    outer loop
      vertex 14.6289 1.44526 1.5
      vertex 12.8763 0.481753 1.5
      vertex 12.9686 0.24869 1.5
    endloop
  endfacet
  facet normal 0 0 1
    outer loop
      vertex 14.1869 2.05364 1.5
      vertex 12.729 0.684546 1.5
      vertex 12.8763 0.481753 1.5
    endloop
  endfacet
  facet normal 0 0 1
    outer loop
      vertex 13.6075 2.53298 1.5
      vertex 12.5358 0.844327 1.5
      vertex 12.729 0.684546 1.5
    endloop
  endfacet
  facet normal 0 0 1
    outer loop
      vertex 12.9271 2.85317 1.5
      vertex 12.309 0.951056 1.5
      vertex 12.5358 0.844327 1.5
    endloop
  endfacet
  facet normal 0 0 1
    outer loop
      vertex 12.1884 2.99408 1.5
      vertex 12.309 0.951056 1.5
      vertex 12.9271 2.85317 1.5
    endloop
  endfacet
  facet normal 0 0 1
    outer loop
      vertex 12.1884 2.99408 1.5
      vertex 12.0628 0.998026 1.5
      vertex 12.309 0.951056 1.5
    endloop
  endfacet
  facet normal 0 0 1
    outer loop
      vertex 12.1884 2.99408 1.5
      vertex 11.8126 0.982286 1.5
      vertex 12.0628 0.998026 1.5
    endloop
  endfacet
  facet normal -0 0 1
    outer loop
      vertex 11.4379 2.94686 1.5
      vertex 11.8126 0.982286 1.5
      vertex 12.1884 2.99408 1.5
    endloop
  endfacet
  facet normal 0 0 1
    outer loop
      vertex 11.8126 0.982286 1.5
      vertex 11.4379 2.94686 1.5
      vertex 11.5742 0.904826 1.5
    endloop
  endfacet
  facet normal -0 0 1
    outer loop
      vertex 10.7227 2.71448 1.5
      vertex 11.5742 0.904826 1.5
      vertex 11.4379 2.94686 1.5
    endloop
  endfacet
  facet normal 0 0 1
    outer loop
      vertex 11.5742 0.904826 1.5
      vertex 10.7227 2.71448 1.5
      vertex 11.3626 0.770513 1.5
    endloop
  endfacet
  facet normal -0 0 1
    outer loop
      vertex 10.0877 2.31154 1.5
      vertex 11.3626 0.770513 1.5
      vertex 10.7227 2.71448 1.5
    endloop
  endfacet
  facet normal 0 0 1
    outer loop
      vertex 11.3626 0.770513 1.5
      vertex 10.0877 2.31154 1.5
      vertex 11.191 0.587785 1.5
    endloop
  endfacet
  facet normal 0 0 1
    outer loop
      vertex 11.191 0.587785 1.5
      vertex 9.57295 1.76336 1.5
      vertex 11.0702 0.368124 1.5
    endloop
  endfacet
  facet normal -0 0 1
    outer loop
      vertex 9.57295 1.76336 1.5
      vertex 11.191 0.587785 1.5
      vertex 10.0877 2.31154 1.5
    endloop
  endfacet
  facet normal 0 0 1
    outer loop
      vertex 14.6289 -1.44526 1.5
      vertex 12.8763 -0.481753 1.5
      vertex 14.1869 -2.05364 1.5
    endloop
  endfacet
  facet normal -0 0 1
    outer loop
      vertex 12.729 -0.684546 1.5
      vertex 14.1869 -2.05364 1.5
      vertex 12.8763 -0.481753 1.5
    endloop
  endfacet
  facet normal 0 0 1
    outer loop
      vertex 14.1869 -2.05364 1.5
      vertex 12.729 -0.684546 1.5
      vertex 13.6075 -2.53298 1.5
    endloop
  endfacet
  facet normal -0 0 1
    outer loop
      vertex 12.5358 -0.844327 1.5
      vertex 13.6075 -2.53298 1.5
      vertex 12.729 -0.684546 1.5
    endloop
  endfacet
  facet normal 0 0 1
    outer loop
      vertex 13.6075 -2.53298 1.5
      vertex 12.5358 -0.844327 1.5
      vertex 12.9271 -2.85317 1.5
    endloop
  endfacet
  facet normal -0 0 1
    outer loop
      vertex 12.309 -0.951056 1.5
      vertex 12.9271 -2.85317 1.5
      vertex 12.5358 -0.844327 1.5
    endloop
  endfacet
  facet normal 0 0 1
    outer loop
      vertex 12.309 -0.951056 1.5
      vertex 12.1884 -2.99408 1.5
      vertex 12.9271 -2.85317 1.5
    endloop
  endfacet
  facet normal -0 0 1
    outer loop
      vertex 12.0628 -0.998026 1.5
      vertex 12.1884 -2.99408 1.5
      vertex 12.309 -0.951056 1.5
    endloop
  endfacet
  facet normal 0 0 1
    outer loop
      vertex 11.8126 -0.982286 1.5
      vertex 12.1884 -2.99408 1.5
      vertex 12.0628 -0.998026 1.5
    endloop
  endfacet
  facet normal 0 0 1
    outer loop
      vertex 11.4379 -2.94686 1.5
      vertex 11.8126 -0.982286 1.5
      vertex 11.5742 -0.904826 1.5
    endloop
  endfacet
  facet normal 0 0 1
    outer loop
      vertex 11.8126 -0.982286 1.5
      vertex 11.4379 -2.94686 1.5
      vertex 12.1884 -2.99408 1.5
    endloop
  endfacet
  facet normal 0 0 1
    outer loop
      vertex 10.7227 -2.71448 1.5
      vertex 11.5742 -0.904826 1.5
      vertex 11.3626 -0.770513 1.5
    endloop
  endfacet
  facet normal 0 0 1
    outer loop
      vertex 10.0877 -2.31154 1.5
      vertex 11.3626 -0.770513 1.5
      vertex 11.191 -0.587785 1.5
    endloop
  endfacet
  facet normal 0 0 1
    outer loop
      vertex 9.57295 -1.76336 1.5
      vertex 11.191 -0.587785 1.5
      vertex 11.0702 -0.368124 1.5
    endloop
  endfacet
  facet normal 0 0 1
    outer loop
      vertex 9.18387 -1 1.5
      vertex 11.0702 -0.368124 1.5
      vertex 11.0079 -0.125333 1.5
    endloop
  endfacet
  facet normal 0 0 1
    outer loop
      vertex 11.5742 -0.904826 1.5
      vertex 10.7227 -2.71448 1.5
      vertex 11.4379 -2.94686 1.5
    endloop
  endfacet
  facet normal -0 0 1
    outer loop
      vertex 9.21067 1.10437 1.5
      vertex 11.0702 0.368124 1.5
      vertex 9.57295 1.76336 1.5
    endloop
  endfacet
  facet normal -0 0 1
    outer loop
      vertex 9.18387 1 1.5
      vertex 11.0702 0.368124 1.5
      vertex 9.21067 1.10437 1.5
    endloop
  endfacet
  facet normal 0 0 1
    outer loop
      vertex 11.3626 -0.770513 1.5
      vertex 10.0877 -2.31154 1.5
      vertex 10.7227 -2.71448 1.5
    endloop
  endfacet
  facet normal 0 0 1
    outer loop
      vertex 11.0702 0.368124 1.5
      vertex 9.18387 1 1.5
      vertex 11.0079 0.125333 1.5
    endloop
  endfacet
  facet normal 0 0 1
    outer loop
      vertex 9.18387 -1 1.5
      vertex 11.0079 -0.125333 1.5
      vertex 9.18387 1 1.5
    endloop
  endfacet
  facet normal 0 0 1
    outer loop
      vertex 11.0079 0.125333 1.5
      vertex 9.18387 1 1.5
      vertex 11.0079 -0.125333 1.5
    endloop
  endfacet
  facet normal 0 0 1
    outer loop
      vertex 11.0702 -0.368124 1.5
      vertex 9.18387 -1 1.5
      vertex 9.21067 -1.10437 1.5
    endloop
  endfacet
  facet normal 0 0 1
    outer loop
      vertex 11.191 -0.587785 1.5
      vertex 9.57295 -1.76336 1.5
      vertex 10.0877 -2.31154 1.5
    endloop
  endfacet
  facet normal 0 0 1
    outer loop
      vertex 11.0702 -0.368124 1.5
      vertex 9.21067 -1.10437 1.5
      vertex 9.57295 -1.76336 1.5
    endloop
  endfacet
  facet normal -0 0 1
    outer loop
      vertex 5.5 1 1.5
      vertex 9.18387 -1 1.5
      vertex 9.18387 1 1.5
    endloop
  endfacet
  facet normal 0 0 1
    outer loop
      vertex 5.5 1 1.5
      vertex 5.37367 -1 1.5
      vertex 9.18387 -1 1.5
    endloop
  endfacet
  facet normal -0 0 1
    outer loop
      vertex 3.5 0 1.5
      vertex 5.37367 -1 1.5
      vertex 5.5 1 1.5
    endloop
  endfacet
  facet normal -0 0 1
    outer loop
      vertex 3.39004 -0.870414 1.5
      vertex 5.37367 -1 1.5
      vertex 3.5 0 1.5
    endloop
  endfacet
  facet normal 0 0 1
    outer loop
      vertex 5.37367 -1 1.5
      vertex 3.39004 -0.870414 1.5
      vertex 5.32721 -1.36779 1.5
    endloop
  endfacet
  facet normal 0 0 1
    outer loop
      vertex 5.32721 -1.36779 1.5
      vertex 3.39004 -0.870414 1.5
      vertex 4.81969 -2.64964 1.5
    endloop
  endfacet
  facet normal 0 0 1
    outer loop
      vertex 5.5 1 1.5
      vertex 3.39004 0.870414 1.5
      vertex 3.5 0 1.5
    endloop
  endfacet
  facet normal 0 -0 1
    outer loop
      vertex 3.39004 0.870414 1.5
      vertex 5.5 1 1.5
      vertex 3.33873 1 1.5
    endloop
  endfacet
  facet normal -0.309016 0.951057 0
    outer loop
      vertex -1.0306 5.40258 0
      vertex -2.34179 4.97655 1.5
      vertex -1.0306 5.40258 1.5
    endloop
  endfacet
  facet normal -0.309016 0.951057 0
    outer loop
      vertex -2.34179 4.97655 1.5
      vertex -1.0306 5.40258 0
      vertex -2.34179 4.97655 0
    endloop
  endfacet
  facet normal 0.992116 -0.125326 0
    outer loop
      vertex 5.32721 -1.36779 1.5
      vertex 5.37367 -1 0
      vertex 5.37367 -1 1.5
    endloop
  endfacet
  facet normal 0.992116 -0.125326 0
    outer loop
      vertex 5.37367 -1 0
      vertex 5.32721 -1.36779 1.5
      vertex 5.32721 -1.36779 0
    endloop
  endfacet
  facet normal 0.187384 -0.982287 0
    outer loop
      vertex 0.345347 -5.48915 0
      vertex 1.69959 -5.23081 1.5
      vertex 0.345347 -5.48915 1.5
    endloop
  endfacet
  facet normal 0.187384 -0.982287 0
    outer loop
      vertex 1.69959 -5.23081 1.5
      vertex 0.345347 -5.48915 0
      vertex 1.69959 -5.23081 0
    endloop
  endfacet
  facet normal -0.535831 -0.844325 0
    outer loop
      vertex -3.50583 -4.23782 0
      vertex -2.34179 -4.97655 1.5
      vertex -3.50583 -4.23782 1.5
    endloop
  endfacet
  facet normal -0.535831 -0.844325 -0
    outer loop
      vertex -2.34179 -4.97655 1.5
      vertex -3.50583 -4.23782 0
      vertex -2.34179 -4.97655 0
    endloop
  endfacet
  facet normal -0.0627925 -0.998027 0
    outer loop
      vertex -1.0306 -5.40258 0
      vertex 0.345347 -5.48915 1.5
      vertex -1.0306 -5.40258 1.5
    endloop
  endfacet
  facet normal -0.0627925 -0.998027 -0
    outer loop
      vertex 0.345347 -5.48915 1.5
      vertex -1.0306 -5.40258 0
      vertex 0.345347 -5.48915 0
    endloop
  endfacet
  facet normal -0.876307 -0.481753 0
    outer loop
      vertex -4.44959 -3.23282 0
      vertex -5.11377 -2.02468 1.5
      vertex -5.11377 -2.02468 0
    endloop
  endfacet
  facet normal -0.876307 -0.481753 0
    outer loop
      vertex -5.11377 -2.02468 1.5
      vertex -4.44959 -3.23282 0
      vertex -4.44959 -3.23282 1.5
    endloop
  endfacet
  facet normal 0.637422 -0.770515 0
    outer loop
      vertex 2.94705 -4.6438 0
      vertex 4.00933 -3.76501 1.5
      vertex 2.94705 -4.6438 1.5
    endloop
  endfacet
  facet normal 0.637422 -0.770515 0
    outer loop
      vertex 4.00933 -3.76501 1.5
      vertex 2.94705 -4.6438 0
      vertex 4.00933 -3.76501 0
    endloop
  endfacet
  facet normal 0.929777 -0.368124 0
    outer loop
      vertex 4.81969 -2.64964 1.5
      vertex 5.32721 -1.36779 0
      vertex 5.32721 -1.36779 1.5
    endloop
  endfacet
  facet normal 0.929777 -0.368124 0
    outer loop
      vertex 5.32721 -1.36779 0
      vertex 4.81969 -2.64964 1.5
      vertex 4.81969 -2.64964 0
    endloop
  endfacet
  facet normal 0.809018 -0.587783 0
    outer loop
      vertex 4.00933 -3.76501 1.5
      vertex 4.81969 -2.64964 0
      vertex 4.81969 -2.64964 1.5
    endloop
  endfacet
  facet normal 0.809018 -0.587783 0
    outer loop
      vertex 4.81969 -2.64964 0
      vertex 4.00933 -3.76501 1.5
      vertex 4.00933 -3.76501 0
    endloop
  endfacet
  facet normal 0.425779 -0.904827 0
    outer loop
      vertex 1.69959 -5.23081 0
      vertex 2.94705 -4.6438 1.5
      vertex 1.69959 -5.23081 1.5
    endloop
  endfacet
  facet normal 0.425779 -0.904827 0
    outer loop
      vertex 2.94705 -4.6438 1.5
      vertex 1.69959 -5.23081 0
      vertex 2.94705 -4.6438 0
    endloop
  endfacet
  facet normal -0.309016 -0.951057 0
    outer loop
      vertex -2.34179 -4.97655 0
      vertex -1.0306 -5.40258 1.5
      vertex -2.34179 -4.97655 1.5
    endloop
  endfacet
  facet normal -0.309016 -0.951057 -0
    outer loop
      vertex -1.0306 -5.40258 1.5
      vertex -2.34179 -4.97655 0
      vertex -1.0306 -5.40258 0
    endloop
  endfacet
  facet normal 0.992107 0.125398 0
    outer loop
      vertex 15 0 1.5
      vertex 14.9057 0.746069 0
      vertex 14.9057 0.746069 1.5
    endloop
  endfacet
  facet normal 0.992107 0.125398 0
    outer loop
      vertex 14.9057 0.746069 0
      vertex 15 0 1.5
      vertex 15 0 0
    endloop
  endfacet
  facet normal -0.0627939 0.998027 0
    outer loop
      vertex 12.1884 2.99408 0
      vertex 11.4379 2.94686 1.5
      vertex 12.1884 2.99408 1.5
    endloop
  endfacet
  facet normal -0.0627939 0.998027 0
    outer loop
      vertex 11.4379 2.94686 1.5
      vertex 12.1884 2.99408 0
      vertex 11.4379 2.94686 0
    endloop
  endfacet
  facet normal 0.187375 -0.982288 0
    outer loop
      vertex 12.1884 -2.99408 0
      vertex 12.9271 -2.85317 1.5
      vertex 12.1884 -2.99408 1.5
    endloop
  endfacet
  facet normal 0.187375 -0.982288 0
    outer loop
      vertex 12.9271 -2.85317 1.5
      vertex 12.1884 -2.99408 0
      vertex 12.9271 -2.85317 0
    endloop
  endfacet
  facet normal 0.637439 0.770501 -0
    outer loop
      vertex 14.1869 2.05364 0
      vertex 13.6075 2.53298 1.5
      vertex 14.1869 2.05364 1.5
    endloop
  endfacet
  facet normal 0.637439 0.770501 0
    outer loop
      vertex 13.6075 2.53298 1.5
      vertex 14.1869 2.05364 0
      vertex 13.6075 2.53298 0
    endloop
  endfacet
  facet normal 0.92979 0.368091 0
    outer loop
      vertex 14.9057 0.746069 1.5
      vertex 14.6289 1.44526 0
      vertex 14.6289 1.44526 1.5
    endloop
  endfacet
  facet normal 0.92979 0.368091 0
    outer loop
      vertex 14.6289 1.44526 0
      vertex 14.9057 0.746069 1.5
      vertex 14.9057 0.746069 0
    endloop
  endfacet
  facet normal 0.425799 0.904818 -0
    outer loop
      vertex 13.6075 2.53298 0
      vertex 12.9271 2.85317 1.5
      vertex 13.6075 2.53298 1.5
    endloop
  endfacet
  facet normal 0.425799 0.904818 0
    outer loop
      vertex 12.9271 2.85317 1.5
      vertex 13.6075 2.53298 0
      vertex 12.9271 2.85317 0
    endloop
  endfacet
  facet normal -0.728985 0.684529 0
    outer loop
      vertex 9.57295 1.76336 0
      vertex 10.0877 2.31154 1.5
      vertex 10.0877 2.31154 0
    endloop
  endfacet
  facet normal -0.728985 0.684529 0
    outer loop
      vertex 10.0877 2.31154 1.5
      vertex 9.57295 1.76336 0
      vertex 9.57295 1.76336 1.5
    endloop
  endfacet
  facet normal -0.535786 0.844354 0
    outer loop
      vertex 10.7227 2.71448 0
      vertex 10.0877 2.31154 1.5
      vertex 10.7227 2.71448 1.5
    endloop
  endfacet
  facet normal -0.535786 0.844354 0
    outer loop
      vertex 10.0877 2.31154 1.5
      vertex 10.7227 2.71448 0
      vertex 10.0877 2.31154 0
    endloop
  endfacet
  facet normal 0.809026 0.587773 0
    outer loop
      vertex 14.6289 1.44526 1.5
      vertex 14.1869 2.05364 0
      vertex 14.1869 2.05364 1.5
    endloop
  endfacet
  facet normal 0.809026 0.587773 0
    outer loop
      vertex 14.1869 2.05364 0
      vertex 14.6289 1.44526 1.5
      vertex 14.6289 1.44526 0
    endloop
  endfacet
  facet normal 0.187375 0.982288 -0
    outer loop
      vertex 12.9271 2.85317 0
      vertex 12.1884 2.99408 1.5
      vertex 12.9271 2.85317 1.5
    endloop
  endfacet
  facet normal 0.187375 0.982288 0
    outer loop
      vertex 12.1884 2.99408 1.5
      vertex 12.9271 2.85317 0
      vertex 12.1884 2.99408 0
    endloop
  endfacet
  facet normal -0.876308 0.481751 0
    outer loop
      vertex 9.21067 1.10437 0
      vertex 9.57295 1.76336 1.5
      vertex 9.57295 1.76336 0
    endloop
  endfacet
  facet normal -0.876308 0.481751 0
    outer loop
      vertex 9.57295 1.76336 1.5
      vertex 9.21067 1.10437 0
      vertex 9.21067 1.10437 1.5
    endloop
  endfacet
  facet normal -0.968578 0.24871 0
    outer loop
      vertex 9.18387 1 0
      vertex 9.21067 1.10437 1.5
      vertex 9.21067 1.10437 0
    endloop
  endfacet
  facet normal -0.968578 0.24871 0
    outer loop
      vertex 9.21067 1.10437 1.5
      vertex 9.18387 1 0
      vertex 9.18387 1 1.5
    endloop
  endfacet
  facet normal -0.309014 0.951058 0
    outer loop
      vertex 11.4379 2.94686 0
      vertex 10.7227 2.71448 1.5
      vertex 11.4379 2.94686 1.5
    endloop
  endfacet
  facet normal -0.309014 0.951058 0
    outer loop
      vertex 10.7227 2.71448 1.5
      vertex 11.4379 2.94686 0
      vertex 10.7227 2.71448 0
    endloop
  endfacet
  facet normal 0.992107 -0.125398 0
    outer loop
      vertex 14.9057 -0.746069 1.5
      vertex 15 0 0
      vertex 15 0 1.5
    endloop
  endfacet
  facet normal 0.992107 -0.125398 0
    outer loop
      vertex 15 0 0
      vertex 14.9057 -0.746069 1.5
      vertex 14.9057 -0.746069 0
    endloop
  endfacet
  facet normal 0.809026 -0.587773 0
    outer loop
      vertex 14.1869 -2.05364 1.5
      vertex 14.6289 -1.44526 0
      vertex 14.6289 -1.44526 1.5
    endloop
  endfacet
  facet normal 0.809026 -0.587773 0
    outer loop
      vertex 14.6289 -1.44526 0
      vertex 14.1869 -2.05364 1.5
      vertex 14.1869 -2.05364 0
    endloop
  endfacet
  facet normal 0.92979 -0.368091 0
    outer loop
      vertex 14.6289 -1.44526 1.5
      vertex 14.9057 -0.746069 0
      vertex 14.9057 -0.746069 1.5
    endloop
  endfacet
  facet normal 0.92979 -0.368091 0
    outer loop
      vertex 14.9057 -0.746069 0
      vertex 14.6289 -1.44526 1.5
      vertex 14.6289 -1.44526 0
    endloop
  endfacet
  facet normal -0.728985 -0.684529 0
    outer loop
      vertex 10.0877 -2.31154 0
      vertex 9.57295 -1.76336 1.5
      vertex 9.57295 -1.76336 0
    endloop
  endfacet
  facet normal -0.728985 -0.684529 0
    outer loop
      vertex 9.57295 -1.76336 1.5
      vertex 10.0877 -2.31154 0
      vertex 10.0877 -2.31154 1.5
    endloop
  endfacet
  facet normal -0.968578 -0.24871 0
    outer loop
      vertex 9.21067 -1.10437 0
      vertex 9.18387 -1 1.5
      vertex 9.18387 -1 0
    endloop
  endfacet
  facet normal -0.968578 -0.24871 0
    outer loop
      vertex 9.18387 -1 1.5
      vertex 9.21067 -1.10437 0
      vertex 9.21067 -1.10437 1.5
    endloop
  endfacet
  facet normal 0.425799 -0.904818 0
    outer loop
      vertex 12.9271 -2.85317 0
      vertex 13.6075 -2.53298 1.5
      vertex 12.9271 -2.85317 1.5
    endloop
  endfacet
  facet normal 0.425799 -0.904818 0
    outer loop
      vertex 13.6075 -2.53298 1.5
      vertex 12.9271 -2.85317 0
      vertex 13.6075 -2.53298 0
    endloop
  endfacet
  facet normal -0.535786 -0.844354 0
    outer loop
      vertex 10.0877 -2.31154 0
      vertex 10.7227 -2.71448 1.5
      vertex 10.0877 -2.31154 1.5
    endloop
  endfacet
  facet normal -0.535786 -0.844354 -0
    outer loop
      vertex 10.7227 -2.71448 1.5
      vertex 10.0877 -2.31154 0
      vertex 10.7227 -2.71448 0
    endloop
  endfacet
  facet normal -0.0627939 -0.998027 0
    outer loop
      vertex 11.4379 -2.94686 0
      vertex 12.1884 -2.99408 1.5
      vertex 11.4379 -2.94686 1.5
    endloop
  endfacet
  facet normal -0.0627939 -0.998027 -0
    outer loop
      vertex 12.1884 -2.99408 1.5
      vertex 11.4379 -2.94686 0
      vertex 12.1884 -2.99408 0
    endloop
  endfacet
  facet normal -0.876308 -0.481751 0
    outer loop
      vertex 9.57295 -1.76336 0
      vertex 9.21067 -1.10437 1.5
      vertex 9.21067 -1.10437 0
    endloop
  endfacet
  facet normal -0.876308 -0.481751 0
    outer loop
      vertex 9.21067 -1.10437 1.5
      vertex 9.57295 -1.76336 0
      vertex 9.57295 -1.76336 1.5
    endloop
  endfacet
  facet normal 0.637439 -0.770501 0
    outer loop
      vertex 13.6075 -2.53298 0
      vertex 14.1869 -2.05364 1.5
      vertex 13.6075 -2.53298 1.5
    endloop
  endfacet
  facet normal 0.637439 -0.770501 0
    outer loop
      vertex 14.1869 -2.05364 1.5
      vertex 13.6075 -2.53298 0
      vertex 14.1869 -2.05364 0
    endloop
  endfacet
  facet normal -0.309014 -0.951058 0
    outer loop
      vertex 10.7227 -2.71448 0
      vertex 11.4379 -2.94686 1.5
      vertex 10.7227 -2.71448 1.5
    endloop
  endfacet
  facet normal -0.309014 -0.951058 -0
    outer loop
      vertex 11.4379 -2.94686 1.5
      vertex 10.7227 -2.71448 0
      vertex 11.4379 -2.94686 0
    endloop
  endfacet
  facet normal 0 1 -0
    outer loop
      vertex 9.18387 1 0
      vertex 5.5 1 1.5
      vertex 9.18387 1 1.5
    endloop
  endfacet
  facet normal 0 1 0
    outer loop
      vertex 5.5 1 1.5
      vertex 9.18387 1 0
      vertex 5.5 1 0
    endloop
  endfacet
  facet normal 0 1 -0
    outer loop
      vertex 5.5 1 0
      vertex 3.33873 1 1.5
      vertex 5.5 1 1.5
    endloop
  endfacet
  facet normal 0 1 0
    outer loop
      vertex 3.33873 1 1.5
      vertex 5.5 1 0
      vertex 3.33873 1 0
    endloop
  endfacet
  facet normal 0 -1 0
    outer loop
      vertex 5.37367 -1 0
      vertex 9.18387 -1 1.5
      vertex 5.37367 -1 1.5
    endloop
  endfacet
  facet normal 0 -1 -0
    outer loop
      vertex 9.18387 -1 1.5
      vertex 5.37367 -1 0
      vertex 9.18387 -1 0
    endloop
  endfacet
  facet normal -0.992115 -0.125335 0
    outer loop
      vertex 3.5 0 0
      vertex 3.39004 0.870414 1.5
      vertex 3.39004 0.870414 0
    endloop
  endfacet
  facet normal -0.992115 -0.125335 0
    outer loop
      vertex 3.39004 0.870414 1.5
      vertex 3.5 0 0
      vertex 3.5 0 1.5
    endloop
  endfacet
  facet normal 1 -0 0
    outer loop
      vertex -3.4724 -0.438665 1.5
      vertex -3.4724 0.438665 0
      vertex -3.4724 0.438665 1.5
    endloop
  endfacet
  facet normal 1 0 0
    outer loop
      vertex -3.4724 0.438665 0
      vertex -3.4724 -0.438665 1.5
      vertex -3.4724 -0.438665 0
    endloop
  endfacet
  facet normal 0.0627926 -0.998027 0
    outer loop
      vertex -0.655834 3.438 0
      vertex 0.219767 3.49309 1.5
      vertex -0.655834 3.438 1.5
    endloop
  endfacet
  facet normal 0.0627926 -0.998027 0
    outer loop
      vertex 0.219767 3.49309 1.5
      vertex -0.655834 3.438 0
      vertex 0.219767 3.49309 0
    endloop
  endfacet
  facet normal 0.0627926 0.998027 -0
    outer loop
      vertex 0.219767 -3.49309 0
      vertex -0.655834 -3.438 1.5
      vertex 0.219767 -3.49309 1.5
    endloop
  endfacet
  facet normal 0.0627926 0.998027 0
    outer loop
      vertex -0.655834 -3.438 1.5
      vertex 0.219767 -3.49309 0
      vertex -0.655834 -3.438 0
    endloop
  endfacet
  facet normal 0.728967 -0.684549 0
    outer loop
      vertex -2.83156 2.05725 1.5
      vertex -2.23098 2.6968 0
      vertex -2.23098 2.6968 1.5
    endloop
  endfacet
  facet normal 0.728967 -0.684549 0
    outer loop
      vertex -2.23098 2.6968 0
      vertex -2.83156 2.05725 1.5
      vertex -2.83156 2.05725 0
    endloop
  endfacet
  facet normal 0.876308 -0.481752 0
    outer loop
      vertex -3.25422 1.28843 1.5
      vertex -2.83156 2.05725 0
      vertex -2.83156 2.05725 1.5
    endloop
  endfacet
  facet normal 0.876308 -0.481752 0
    outer loop
      vertex -2.83156 2.05725 0
      vertex -3.25422 1.28843 1.5
      vertex -3.25422 1.28843 0
    endloop
  endfacet
  facet normal 0.309015 -0.951057 0
    outer loop
      vertex -1.49023 3.16689 0
      vertex -0.655834 3.438 1.5
      vertex -1.49023 3.16689 1.5
    endloop
  endfacet
  facet normal 0.309015 -0.951057 0
    outer loop
      vertex -0.655834 3.438 1.5
      vertex -1.49023 3.16689 0
      vertex -0.655834 3.438 0
    endloop
  endfacet
  facet normal -0.929776 0.368126 0
    outer loop
      vertex 3.06707 -1.68614 0
      vertex 3.39004 -0.870414 1.5
      vertex 3.39004 -0.870414 0
    endloop
  endfacet
  facet normal -0.929776 0.368126 0
    outer loop
      vertex 3.39004 -0.870414 1.5
      vertex 3.06707 -1.68614 0
      vertex 3.06707 -1.68614 1.5
    endloop
  endfacet
  facet normal 0.535823 0.84433 -0
    outer loop
      vertex -1.49023 -3.16689 0
      vertex -2.23098 -2.6968 1.5
      vertex -1.49023 -3.16689 1.5
    endloop
  endfacet
  facet normal 0.535823 0.84433 0
    outer loop
      vertex -2.23098 -2.6968 1.5
      vertex -1.49023 -3.16689 0
      vertex -2.23098 -2.6968 0
    endloop
  endfacet
  facet normal -0.929768 -0.368145 0
    outer loop
      vertex 3.39004 0.870414 0
      vertex 3.33873 1 1.5
      vertex 3.33873 1 0
    endloop
  endfacet
  facet normal -0.929768 -0.368145 0
    outer loop
      vertex 3.33873 1 1.5
      vertex 3.39004 0.870414 0
      vertex 3.39004 0.870414 1.5
    endloop
  endfacet
  facet normal -0.187375 -0.982289 0
    outer loop
      vertex 0.219767 3.49309 0
      vertex 0.662381 3.40866 1.5
      vertex 0.219767 3.49309 1.5
    endloop
  endfacet
  facet normal -0.187375 -0.982289 -0
    outer loop
      vertex 0.662381 3.40866 1.5
      vertex 0.219767 3.49309 0
      vertex 0.662381 3.40866 0
    endloop
  endfacet
  facet normal 0.968584 -0.248687 0
    outer loop
      vertex -3.4724 0.438665 1.5
      vertex -3.25422 1.28843 0
      vertex -3.25422 1.28843 1.5
    endloop
  endfacet
  facet normal 0.968584 -0.248687 0
    outer loop
      vertex -3.25422 1.28843 0
      vertex -3.4724 0.438665 1.5
      vertex -3.4724 0.438665 0
    endloop
  endfacet
  facet normal 0.535823 -0.84433 0
    outer loop
      vertex -2.23098 2.6968 0
      vertex -1.49023 3.16689 1.5
      vertex -2.23098 2.6968 1.5
    endloop
  endfacet
  facet normal 0.535823 -0.84433 0
    outer loop
      vertex -1.49023 3.16689 1.5
      vertex -2.23098 2.6968 0
      vertex -1.49023 3.16689 0
    endloop
  endfacet
  facet normal -0.187375 0.982288 0
    outer loop
      vertex 1.08156 -3.3287 0
      vertex 0.219767 -3.49309 1.5
      vertex 1.08156 -3.3287 1.5
    endloop
  endfacet
  facet normal -0.187375 0.982288 0
    outer loop
      vertex 0.219767 -3.49309 1.5
      vertex 1.08156 -3.3287 0
      vertex 0.219767 -3.49309 0
    endloop
  endfacet
  facet normal -0.637427 0.770511 0
    outer loop
      vertex 2.55139 -2.39591 0
      vertex 1.87539 -2.95515 1.5
      vertex 2.55139 -2.39591 1.5
    endloop
  endfacet
  facet normal -0.637427 0.770511 0
    outer loop
      vertex 1.87539 -2.95515 1.5
      vertex 2.55139 -2.39591 0
      vertex 1.87539 -2.95515 0
    endloop
  endfacet
  facet normal 0.309015 0.951057 -0
    outer loop
      vertex -0.655834 -3.438 0
      vertex -1.49023 -3.16689 1.5
      vertex -0.655834 -3.438 1.5
    endloop
  endfacet
  facet normal 0.309015 0.951057 0
    outer loop
      vertex -1.49023 -3.16689 1.5
      vertex -0.655834 -3.438 0
      vertex -1.49023 -3.16689 0
    endloop
  endfacet
  facet normal 0.728967 0.684549 0
    outer loop
      vertex -2.23098 -2.6968 1.5
      vertex -2.83156 -2.05725 0
      vertex -2.83156 -2.05725 1.5
    endloop
  endfacet
  facet normal 0.728967 0.684549 0
    outer loop
      vertex -2.83156 -2.05725 0
      vertex -2.23098 -2.6968 1.5
      vertex -2.23098 -2.6968 0
    endloop
  endfacet
  facet normal 0.968584 0.248687 0
    outer loop
      vertex -3.25422 -1.28843 1.5
      vertex -3.4724 -0.438665 0
      vertex -3.4724 -0.438665 1.5
    endloop
  endfacet
  facet normal 0.968584 0.248687 0
    outer loop
      vertex -3.4724 -0.438665 0
      vertex -3.25422 -1.28843 1.5
      vertex -3.25422 -1.28843 0
    endloop
  endfacet
  facet normal -0.992115 0.125335 0
    outer loop
      vertex 3.39004 -0.870414 0
      vertex 3.5 0 1.5
      vertex 3.5 0 0
    endloop
  endfacet
  facet normal -0.992115 0.125335 0
    outer loop
      vertex 3.5 0 1.5
      vertex 3.39004 -0.870414 0
      vertex 3.39004 -0.870414 1.5
    endloop
  endfacet
  facet normal -0.425781 0.904826 0
    outer loop
      vertex 1.87539 -2.95515 0
      vertex 1.08156 -3.3287 1.5
      vertex 1.87539 -2.95515 1.5
    endloop
  endfacet
  facet normal -0.425781 0.904826 0
    outer loop
      vertex 1.08156 -3.3287 1.5
      vertex 1.87539 -2.95515 0
      vertex 1.08156 -3.3287 0
    endloop
  endfacet
  facet normal -0.809016 0.587787 0
    outer loop
      vertex 2.55139 -2.39591 0
      vertex 3.06707 -1.68614 1.5
      vertex 3.06707 -1.68614 0
    endloop
  endfacet
  facet normal -0.809016 0.587787 0
    outer loop
      vertex 3.06707 -1.68614 1.5
      vertex 2.55139 -2.39591 0
      vertex 2.55139 -2.39591 1.5
    endloop
  endfacet
  facet normal 0.876308 0.481752 0
    outer loop
      vertex -2.83156 -2.05725 1.5
      vertex -3.25422 -1.28843 0
      vertex -3.25422 -1.28843 1.5
    endloop
  endfacet
  facet normal 0.876308 0.481752 0
    outer loop
      vertex -3.25422 -1.28843 0
      vertex -2.83156 -2.05725 1.5
      vertex -2.83156 -2.05725 0
    endloop
  endfacet
  facet normal -0.992123 -0.125267 0
    outer loop
      vertex 13 0 0
      vertex 12.9686 0.24869 1.5
      vertex 12.9686 0.24869 0
    endloop
  endfacet
  facet normal -0.992123 -0.125267 0
    outer loop
      vertex 12.9686 0.24869 1.5
      vertex 13 0 0
      vertex 13 0 1.5
    endloop
  endfacet
  facet normal 1 -0 0
    outer loop
      vertex 11.0079 -0.125333 1.5
      vertex 11.0079 0.125333 0
      vertex 11.0079 0.125333 1.5
    endloop
  endfacet
  facet normal 1 0 0
    outer loop
      vertex 11.0079 0.125333 0
      vertex 11.0079 -0.125333 1.5
      vertex 11.0079 -0.125333 0
    endloop
  endfacet
  facet normal 0.0627856 -0.998027 0
    outer loop
      vertex 11.8126 0.982286 0
      vertex 12.0628 0.998026 1.5
      vertex 11.8126 0.982286 1.5
    endloop
  endfacet
  facet normal 0.0627856 -0.998027 0
    outer loop
      vertex 12.0628 0.998026 1.5
      vertex 11.8126 0.982286 0
      vertex 12.0628 0.998026 0
    endloop
  endfacet
  facet normal -0.1874 0.982284 0
    outer loop
      vertex 12.309 -0.951056 0
      vertex 12.0628 -0.998026 1.5
      vertex 12.309 -0.951056 1.5
    endloop
  endfacet
  facet normal -0.1874 0.982284 0
    outer loop
      vertex 12.0628 -0.998026 1.5
      vertex 12.309 -0.951056 0
      vertex 12.0628 -0.998026 0
    endloop
  endfacet
  facet normal -0.63731 -0.770607 0
    outer loop
      vertex 12.5358 0.844327 0
      vertex 12.729 0.684546 1.5
      vertex 12.5358 0.844327 1.5
    endloop
  endfacet
  facet normal -0.63731 -0.770607 -0
    outer loop
      vertex 12.729 0.684546 1.5
      vertex 12.5358 0.844327 0
      vertex 12.729 0.684546 0
    endloop
  endfacet
  facet normal -0.425796 -0.904819 0
    outer loop
      vertex 12.309 0.951056 0
      vertex 12.5358 0.844327 1.5
      vertex 12.309 0.951056 1.5
    endloop
  endfacet
  facet normal -0.425796 -0.904819 -0
    outer loop
      vertex 12.5358 0.844327 1.5
      vertex 12.309 0.951056 0
      vertex 12.5358 0.844327 0
    endloop
  endfacet
  facet normal 0.728955 -0.684562 0
    outer loop
      vertex 11.191 0.587785 1.5
      vertex 11.3626 0.770513 0
      vertex 11.3626 0.770513 1.5
    endloop
  endfacet
  facet normal 0.728955 -0.684562 0
    outer loop
      vertex 11.3626 0.770513 0
      vertex 11.191 0.587785 1.5
      vertex 11.191 0.587785 0
    endloop
  endfacet
  facet normal 0.876239 -0.481877 0
    outer loop
      vertex 11.0702 0.368124 1.5
      vertex 11.191 0.587785 0
      vertex 11.191 0.587785 1.5
    endloop
  endfacet
  facet normal 0.876239 -0.481877 0
    outer loop
      vertex 11.191 0.587785 0
      vertex 11.0702 0.368124 1.5
      vertex 11.0702 0.368124 0
    endloop
  endfacet
  facet normal 0.535905 -0.844278 0
    outer loop
      vertex 11.3626 0.770513 0
      vertex 11.5742 0.904826 1.5
      vertex 11.3626 0.770513 1.5
    endloop
  endfacet
  facet normal 0.535905 -0.844278 0
    outer loop
      vertex 11.5742 0.904826 1.5
      vertex 11.3626 0.770513 0
      vertex 11.5742 0.904826 0
    endloop
  endfacet
  facet normal -0.929744 0.368207 0
    outer loop
      vertex 12.8763 -0.481753 0
      vertex 12.9686 -0.24869 1.5
      vertex 12.9686 -0.24869 0
    endloop
  endfacet
  facet normal -0.929744 0.368207 0
    outer loop
      vertex 12.9686 -0.24869 1.5
      vertex 12.8763 -0.481753 0
      vertex 12.8763 -0.481753 1.5
    endloop
  endfacet
  facet normal -0.809089 -0.587687 0
    outer loop
      vertex 12.8763 0.481753 0
      vertex 12.729 0.684546 1.5
      vertex 12.729 0.684546 0
    endloop
  endfacet
  facet normal -0.809089 -0.587687 0
    outer loop
      vertex 12.729 0.684546 1.5
      vertex 12.8763 0.481753 0
      vertex 12.8763 0.481753 1.5
    endloop
  endfacet
  facet normal -0.929744 -0.368207 0
    outer loop
      vertex 12.9686 0.24869 0
      vertex 12.8763 0.481753 1.5
      vertex 12.8763 0.481753 0
    endloop
  endfacet
  facet normal -0.929744 -0.368207 0
    outer loop
      vertex 12.8763 0.481753 1.5
      vertex 12.9686 0.24869 0
      vertex 12.9686 0.24869 1.5
    endloop
  endfacet
  facet normal -0.1874 -0.982284 0
    outer loop
      vertex 12.0628 0.998026 0
      vertex 12.309 0.951056 1.5
      vertex 12.0628 0.998026 1.5
    endloop
  endfacet
  facet normal -0.1874 -0.982284 -0
    outer loop
      vertex 12.309 0.951056 1.5
      vertex 12.0628 0.998026 0
      vertex 12.309 0.951056 0
    endloop
  endfacet
  facet normal 0.96862 -0.248547 0
    outer loop
      vertex 11.0079 0.125333 1.5
      vertex 11.0702 0.368124 0
      vertex 11.0702 0.368124 1.5
    endloop
  endfacet
  facet normal 0.96862 -0.248547 0
    outer loop
      vertex 11.0702 0.368124 0
      vertex 11.0079 0.125333 1.5
      vertex 11.0079 0.125333 0
    endloop
  endfacet
  facet normal 0.309014 -0.951058 0
    outer loop
      vertex 11.5742 0.904826 0
      vertex 11.8126 0.982286 1.5
      vertex 11.5742 0.904826 1.5
    endloop
  endfacet
  facet normal 0.309014 -0.951058 0
    outer loop
      vertex 11.8126 0.982286 1.5
      vertex 11.5742 0.904826 0
      vertex 11.8126 0.982286 0
    endloop
  endfacet
  facet normal -0.992123 0.125267 0
    outer loop
      vertex 12.9686 -0.24869 0
      vertex 13 0 1.5
      vertex 13 0 0
    endloop
  endfacet
  facet normal -0.992123 0.125267 0
    outer loop
      vertex 13 0 1.5
      vertex 12.9686 -0.24869 0
      vertex 12.9686 -0.24869 1.5
    endloop
  endfacet
  facet normal -0.809089 0.587687 0
    outer loop
      vertex 12.729 -0.684546 0
      vertex 12.8763 -0.481753 1.5
      vertex 12.8763 -0.481753 0
    endloop
  endfacet
  facet normal -0.809089 0.587687 0
    outer loop
      vertex 12.8763 -0.481753 1.5
      vertex 12.729 -0.684546 0
      vertex 12.729 -0.684546 1.5
    endloop
  endfacet
  facet normal 0.876239 0.481877 0
    outer loop
      vertex 11.191 -0.587785 1.5
      vertex 11.0702 -0.368124 0
      vertex 11.0702 -0.368124 1.5
    endloop
  endfacet
  facet normal 0.876239 0.481877 0
    outer loop
      vertex 11.0702 -0.368124 0
      vertex 11.191 -0.587785 1.5
      vertex 11.191 -0.587785 0
    endloop
  endfacet
  facet normal 0.96862 0.248547 0
    outer loop
      vertex 11.0702 -0.368124 1.5
      vertex 11.0079 -0.125333 0
      vertex 11.0079 -0.125333 1.5
    endloop
  endfacet
  facet normal 0.96862 0.248547 0
    outer loop
      vertex 11.0079 -0.125333 0
      vertex 11.0702 -0.368124 1.5
      vertex 11.0702 -0.368124 0
    endloop
  endfacet
  facet normal 0.728955 0.684562 0
    outer loop
      vertex 11.3626 -0.770513 1.5
      vertex 11.191 -0.587785 0
      vertex 11.191 -0.587785 1.5
    endloop
  endfacet
  facet normal 0.728955 0.684562 0
    outer loop
      vertex 11.191 -0.587785 0
      vertex 11.3626 -0.770513 1.5
      vertex 11.3626 -0.770513 0
    endloop
  endfacet
  facet normal 0.0627856 0.998027 -0
    outer loop
      vertex 12.0628 -0.998026 0
      vertex 11.8126 -0.982286 1.5
      vertex 12.0628 -0.998026 1.5
    endloop
  endfacet
  facet normal 0.0627856 0.998027 0
    outer loop
      vertex 11.8126 -0.982286 1.5
      vertex 12.0628 -0.998026 0
      vertex 11.8126 -0.982286 0
    endloop
  endfacet
  facet normal 0.535905 0.844278 -0
    outer loop
      vertex 11.5742 -0.904826 0
      vertex 11.3626 -0.770513 1.5
      vertex 11.5742 -0.904826 1.5
    endloop
  endfacet
  facet normal 0.535905 0.844278 0
    outer loop
      vertex 11.3626 -0.770513 1.5
      vertex 11.5742 -0.904826 0
      vertex 11.3626 -0.770513 0
    endloop
  endfacet
  facet normal 0.309014 0.951058 -0
    outer loop
      vertex 11.8126 -0.982286 0
      vertex 11.5742 -0.904826 1.5
      vertex 11.8126 -0.982286 1.5
    endloop
  endfacet
  facet normal 0.309014 0.951058 0
    outer loop
      vertex 11.5742 -0.904826 1.5
      vertex 11.8126 -0.982286 0
      vertex 11.5742 -0.904826 0
    endloop
  endfacet
  facet normal -0.63731 0.770607 0
    outer loop
      vertex 12.729 -0.684546 0
      vertex 12.5358 -0.844327 1.5
      vertex 12.729 -0.684546 1.5
    endloop
  endfacet
  facet normal -0.63731 0.770607 0
    outer loop
      vertex 12.5358 -0.844327 1.5
      vertex 12.729 -0.684546 0
      vertex 12.5358 -0.844327 0
    endloop
  endfacet
  facet normal -0.425796 0.904819 0
    outer loop
      vertex 12.5358 -0.844327 0
      vertex 12.309 -0.951056 1.5
      vertex 12.5358 -0.844327 1.5
    endloop
  endfacet
  facet normal -0.425796 0.904819 0
    outer loop
      vertex 12.309 -0.951056 1.5
      vertex 12.5358 -0.844327 0
      vertex 12.309 -0.951056 0
    endloop
  endfacet
  facet normal 0.964205 -0.265159 0
    outer loop
      vertex 0.662381 3.40866 1.5
      vertex 1.1902 5.32798 0
      vertex 1.1902 5.32798 1.5
    endloop
  endfacet
  facet normal 0.964205 -0.265159 0
    outer loop
      vertex 1.1902 5.32798 0
      vertex 0.662381 3.40866 1.5
      vertex 0.662381 3.40866 0
    endloop
  endfacet
endsolid OpenSCAD_Model
